<svg width="10" height="12" viewBox="0 0 10 12" fill="none" xmlns="http://www.w3.org/2000/svg">
    <path d="M7.33398 1.91699V1.33366C7.33398 1.02424 7.21107 0.727493 6.99228 0.508701C6.77348 0.289908 6.47674 0.166992 6.16732 0.166992H3.83398C3.52456 0.166992 3.22782 0.289908 3.00903 0.508701C2.79023 0.727493 2.66732 1.02424 2.66732 1.33366V1.91699C2.04848 1.91699 1.45499 2.16282 1.0174 2.60041C0.579817 3.03799 0.333984 3.63149 0.333984 4.25033V10.667C0.333984 10.9764 0.456901 11.2732 0.675693 11.4919C0.894485 11.7107 1.19123 11.8337 1.50065 11.8337H8.50065C8.81007 11.8337 9.10682 11.7107 9.32561 11.4919C9.5444 11.2732 9.66732 10.9764 9.66732 10.667V4.25033C9.66732 3.63149 9.42148 3.03799 8.9839 2.60041C8.54631 2.16282 7.95282 1.91699 7.33398 1.91699ZM3.83398 1.33366H6.16732V1.91699H3.83398V1.33366ZM5.00065 4.25033L6.16732 5.41699L5.00065 6.58366L3.83398 5.41699L5.00065 4.25033ZM8.50065 8.33366H3.25065V9.50032H2.66732V8.33366H1.50065V7.75032H8.50065V8.33366Z" fill="#202020"/>
</svg>
