<svg width="10" height="10" viewBox="0 0 10 10" fill="none" xmlns="http://www.w3.org/2000/svg">
    <path fill-rule="evenodd" clip-rule="evenodd" d="M5.00025 9.5C5.81318 9.50007 6.61096 9.27992 7.30881 8.86294C8.00666 8.44597 8.57852 7.84773 8.96364 7.13181C9.34875 6.41588 9.53274 5.609 9.49605 4.79689C9.45936 3.98478 9.20336 3.19778 8.75525 2.5195L5.17775 6.4945C5.01064 6.68021 4.78008 6.79664 4.53143 6.82089C4.28279 6.84513 4.03408 6.77543 3.83425 6.6255L2.20025 5.4C2.09416 5.32044 2.02403 5.20199 2.00527 5.07071C1.98652 4.93944 2.02068 4.80609 2.10025 4.7C2.17981 4.59391 2.29826 4.52378 2.42954 4.50503C2.56081 4.48627 2.69416 4.52043 2.80025 4.6L4.43425 5.8255L8.10725 1.745C7.57515 1.23705 6.92664 0.8673 6.2185 0.668111C5.51036 0.468922 4.76419 0.446372 4.04531 0.602436C3.32644 0.7585 2.65678 1.08842 2.09498 1.56331C1.53318 2.03819 1.09637 2.64357 0.822785 3.32642C0.549203 4.00927 0.447197 4.74879 0.525697 5.48021C0.604196 6.21163 0.860809 6.91265 1.27307 7.5219C1.68532 8.13114 2.24065 8.63003 2.89043 8.97489C3.54021 9.31974 4.26463 9.50004 5.00025 9.5Z" fill="#23CFA6"/>
</svg>
