<svg width="14" height="8" viewBox="0 0 14 8" fill="none" xmlns="http://www.w3.org/2000/svg">
<path d="M12.8196 7.78501C12.8864 7.85369 12.965 7.90737 13.0508 7.94301C13.1367 7.97865 13.2282 7.99553 13.32 7.9927C13.4119 7.98988 13.5023 7.96739 13.5862 7.92653C13.6701 7.88567 13.7457 7.82724 13.8088 7.75457C13.872 7.68189 13.9213 7.59641 13.954 7.50298C13.9868 7.40956 14.0023 7.31004 13.9997 7.21009C13.9971 7.11015 13.9765 7.01174 13.9389 6.92048C13.9013 6.82922 13.8476 6.74691 13.7809 6.67823L7.48455 0.208067C7.35466 0.0744495 7.18268 -2.97994e-07 7.00393 -3.05808e-07C6.82518 -3.13621e-07 6.65321 0.0744494 6.52331 0.208067L0.226309 6.67823C0.158056 6.74645 0.10294 6.82875 0.0641658 6.92034C0.0253913 7.01194 0.00373046 7.111 0.000439329 7.21178C-0.00285085 7.31255 0.0122954 7.41304 0.0449978 7.50739C0.0777003 7.60175 0.127308 7.68809 0.190939 7.76141C0.25457 7.83473 0.330955 7.89356 0.41566 7.93449C0.500364 7.97542 0.591697 7.99762 0.684355 7.99982C0.777014 8.00201 0.86915 7.98416 0.955412 7.94728C1.04167 7.91041 1.12034 7.85525 1.18684 7.78501L7.00393 1.8081L12.8196 7.78501Z" fill="#3F4ED6"/>
</svg>
