<svg width="20" height="20" viewBox="0 0 20 20" fill="none" xmlns="http://www.w3.org/2000/svg">
<g clip-path="url(#clip0_65_834)">
<path d="M14.168 2.78357C15.4249 3.50928 16.4704 4.55067 17.2011 5.80465C17.9319 7.05863 18.3224 8.48171 18.3342 9.93302C18.3459 11.3843 17.9784 12.8135 17.268 14.0792C16.5576 15.3448 15.529 16.4029 14.284 17.1488C13.039 17.8948 11.6208 18.3026 10.1697 18.332C8.71866 18.3613 7.28509 18.0112 6.01093 17.3163C4.73677 16.6213 3.66619 15.6057 2.90519 14.3698C2.14419 13.134 1.71914 11.7208 1.67214 10.2702L1.66797 10.0002L1.67214 9.73024C1.7188 8.29106 2.13759 6.88854 2.88767 5.6594C3.63774 4.43026 4.69351 3.41645 5.95205 2.7168C7.21058 2.01716 8.62892 1.65557 10.0688 1.66727C11.5087 1.67897 12.921 2.06357 14.168 2.78357ZM10.0013 5.00024C9.79719 5.00026 9.60019 5.0752 9.44766 5.21083C9.29513 5.34646 9.19768 5.53336 9.1738 5.73607L9.16797 5.83357V10.0002L9.17547 10.1094C9.19447 10.254 9.25108 10.391 9.33964 10.5069L9.41214 10.5902L11.9121 13.0902L11.9905 13.1586C12.1366 13.272 12.3163 13.3335 12.5013 13.3335C12.6863 13.3335 12.866 13.272 13.0121 13.1586L13.0905 13.0894L13.1596 13.0111C13.273 12.8649 13.3346 12.6852 13.3346 12.5002C13.3346 12.3153 13.273 12.1355 13.1596 11.9894L13.0905 11.9111L10.8346 9.6544V5.83357L10.8288 5.73607C10.8049 5.53336 10.7075 5.34646 10.5549 5.21083C10.4024 5.0752 10.2054 5.00026 10.0013 5.00024Z" fill="#3F4ED6"/>
</g>
<defs>
<clipPath id="clip0_65_834">
<rect width="20" height="20" fill="white"/>
</clipPath>
</defs>
</svg>
