<svg width="14" height="14" viewBox="0 0 14 14" fill="none" xmlns="http://www.w3.org/2000/svg">
    <path d="M13.2983 0.302021C13.2058 0.209317 13.0959 0.135769 12.9749 0.085588C12.8539 0.0354065 12.7242 0.00957632 12.5933 0.00957632C12.4623 0.00957632 12.3326 0.0354065 12.2116 0.085588C12.0907 0.135769 11.9808 0.209317 11.8883 0.302021L6.99827 5.18202L2.10827 0.29202C2.01569 0.199438 1.90578 0.125998 1.78481 0.0758934C1.66385 0.0257884 1.5342 9.75509e-10 1.40327 0C1.27234 -9.75509e-10 1.14269 0.0257884 1.02173 0.0758934C0.900763 0.125998 0.790852 0.199438 0.69827 0.29202C0.605688 0.384602 0.532248 0.494513 0.482143 0.615477C0.432038 0.736441 0.40625 0.86609 0.40625 0.997021C0.40625 1.12795 0.432038 1.2576 0.482143 1.37856C0.532248 1.49953 0.605688 1.60944 0.69827 1.70202L5.58827 6.59202L0.69827 11.482C0.605688 11.5746 0.532248 11.6845 0.482143 11.8055C0.432038 11.9264 0.40625 12.0561 0.40625 12.187C0.40625 12.318 0.432038 12.4476 0.482143 12.5686C0.532248 12.6895 0.605688 12.7994 0.69827 12.892C0.790852 12.9846 0.900763 13.058 1.02173 13.1081C1.14269 13.1583 1.27234 13.184 1.40327 13.184C1.5342 13.184 1.66385 13.1583 1.78481 13.1081C1.90578 13.058 2.01569 12.9846 2.10827 12.892L6.99827 8.00202L11.8883 12.892C11.9809 12.9846 12.0908 13.058 12.2117 13.1081C12.3327 13.1583 12.4623 13.184 12.5933 13.184C12.7242 13.184 12.8538 13.1583 12.9748 13.1081C13.0958 13.058 13.2057 12.9846 13.2983 12.892C13.3909 12.7994 13.4643 12.6895 13.5144 12.5686C13.5645 12.4476 13.5903 12.318 13.5903 12.187C13.5903 12.0561 13.5645 11.9264 13.5144 11.8055C13.4643 11.6845 13.3909 11.5746 13.2983 11.482L8.40827 6.59202L13.2983 1.70202C13.6783 1.32202 13.6783 0.682021 13.2983 0.302021Z" fill="#181818"/>
</svg>
