<svg width="66" height="96" viewBox="0 0 66 96" fill="none" xmlns="http://www.w3.org/2000/svg">
<path d="M9.19619 32.8211V27.3235L21.785 9.31676H29.394V26.9251H32.6607V32.8211H29.394V38H22.5817V32.8211H9.19619ZM23.0598 16.8063L16.367 26.9251H23.0598V16.8063ZM35.9974 23.0608C35.9974 18.4927 36.8738 14.8941 38.6267 12.2648C40.4061 9.63546 43.2612 8.32081 47.1918 8.32081C51.1225 8.32081 53.9643 9.63546 55.7171 12.2648C57.4966 14.8941 58.3863 18.4927 58.3863 23.0608C58.3863 27.682 57.4966 31.3072 55.7171 33.9365C53.9643 36.5658 51.1225 37.8805 47.1918 37.8805C43.2612 37.8805 40.4061 36.5658 38.6267 33.9365C36.8738 31.3072 35.9974 27.682 35.9974 23.0608ZM51.6935 23.0608C51.6935 20.3784 51.4014 18.3201 50.8171 16.8859C50.2328 15.4252 49.0244 14.6949 47.1918 14.6949C45.3593 14.6949 44.1509 15.4252 43.5666 16.8859C42.9823 18.3201 42.6902 20.3784 42.6902 23.0608C42.6902 24.8668 42.7964 26.3674 43.0089 27.5625C43.2213 28.7311 43.6463 29.6872 44.2837 30.4308C44.9476 31.1479 45.917 31.5064 47.1918 31.5064C48.4667 31.5064 49.4228 31.1479 50.0602 30.4308C50.7241 29.6872 51.1623 28.7311 51.3748 27.5625C51.5873 26.3674 51.6935 24.8668 51.6935 23.0608Z" fill="#3F4ED6"/>
<path d="M30.8345 62.6125C33.5966 62.6125 35.7877 63.4491 37.4077 65.1223C39.0544 66.7955 39.8777 69.1194 39.8777 72.0939V85.0811H33.1052V73.0102C33.1052 71.576 32.7201 70.4738 31.9499 69.7036C31.2063 68.9069 30.1705 68.5085 28.8426 68.5085C27.5147 68.5085 26.4656 68.9069 25.6954 69.7036C24.9518 70.4738 24.5799 71.576 24.5799 73.0102V85.0811H17.8075V73.0102C17.8075 71.576 17.4224 70.4738 16.6522 69.7036C15.9086 68.9069 14.8728 68.5085 13.5449 68.5085C12.2169 68.5085 11.1679 68.9069 10.3977 69.7036C9.65404 70.4738 9.28222 71.576 9.28222 73.0102V85.0811H2.46995V62.8515H9.28222V65.6402C9.97274 64.7106 10.8757 63.9803 11.9912 63.4491C13.1066 62.8914 14.3682 62.6125 15.7758 62.6125C17.449 62.6125 18.9363 62.9711 20.2376 63.6881C21.5656 64.4052 22.6013 65.4277 23.345 66.7556C24.1152 65.534 25.1642 64.538 26.4922 63.7678C27.8201 62.9976 29.2675 62.6125 30.8345 62.6125ZM48.0681 60.5409C46.8729 60.5409 45.8903 60.1957 45.1201 59.5052C44.3764 58.7881 44.0046 57.9116 44.0046 56.8759C44.0046 55.8135 44.3764 54.9371 45.1201 54.2466C45.8903 53.5295 46.8729 53.1709 48.0681 53.1709C49.2367 53.1709 50.1928 53.5295 50.9364 54.2466C51.7066 54.9371 52.0917 55.8135 52.0917 56.8759C52.0917 57.9116 51.7066 58.7881 50.9364 59.5052C50.1928 60.1957 49.2367 60.5409 48.0681 60.5409ZM51.4543 62.8515V85.0811H44.642V62.8515H51.4543ZM59.8171 60.5409C58.622 60.5409 57.6393 60.1957 56.8691 59.5052C56.1255 58.7881 55.7537 57.9116 55.7537 56.8759C55.7537 55.8135 56.1255 54.9371 56.8691 54.2466C57.6393 53.5295 58.622 53.1709 59.8171 53.1709C60.9857 53.1709 61.9418 53.5295 62.6855 54.2466C63.4557 54.9371 63.8408 55.8135 63.8408 56.8759C63.8408 57.9116 63.4557 58.7881 62.6855 59.5052C61.9418 60.1957 60.9857 60.5409 59.8171 60.5409ZM63.2034 62.8515V85.0811H56.3911V62.8515H63.2034Z" fill="#ACB4FF"/>
</svg>
