<svg width="8" height="20" viewBox="0 0 8 20" fill="none" xmlns="http://www.w3.org/2000/svg">
<path d="M4 0C4.53043 0 5.03914 0.210714 5.41421 0.585786C5.78929 0.960859 6 1.46957 6 2C6 2.53043 5.78929 3.03914 5.41421 3.41421C5.03914 3.78929 4.53043 4 4 4C3.46957 4 2.96086 3.78929 2.58579 3.41421C2.21071 3.03914 2 2.53043 2 2C2 1.46957 2.21071 0.960859 2.58579 0.585786C2.96086 0.210714 3.46957 0 4 0ZM2.5 5H5.5C6.03043 5 6.53914 5.21071 6.91421 5.58579C7.28929 5.96086 7.5 6.46957 7.5 7V12.5H6V20H2V12.5H0.5V7C0.5 6.46957 0.710714 5.96086 1.08579 5.58579C1.46086 5.21071 1.96957 5 2.5 5Z" fill="#3f4ed6"/>
</svg>
