<svg width="89" height="69" viewBox="0 0 89 69" fill="none" xmlns="http://www.w3.org/2000/svg">
<path d="M21.1742 16.7664C20.9617 15.7838 20.5899 15.0534 20.0587 14.5754C19.5275 14.0707 18.7706 13.8184 17.7879 13.8184C16.2741 13.8184 15.1852 14.4824 14.5212 15.8103C13.8573 17.1117 13.512 19.1833 13.4855 22.025C14.0697 21.0955 14.9063 20.3651 15.9952 19.8339C17.1107 19.3028 18.3324 19.0372 19.6603 19.0372C22.2631 19.0372 24.3479 19.8605 25.9149 21.5071C27.5084 23.1538 28.3051 25.4511 28.3051 28.3991C28.3051 30.3379 27.9068 32.0376 27.11 33.4983C26.3398 34.959 25.1978 36.1011 23.6839 36.9244C22.1967 37.7477 20.4305 38.1594 18.3855 38.1594C14.2955 38.1594 11.4537 36.8845 9.86022 34.3349C8.2667 31.7587 7.46995 28.0671 7.46995 23.26C7.46995 18.2139 8.30654 14.4691 9.97973 12.0257C11.6795 9.55578 14.3885 8.32081 18.1066 8.32081C20.0985 8.32081 21.7717 8.71919 23.1262 9.51595C24.5073 10.2861 25.543 11.3086 26.2336 12.5835C26.9506 13.8583 27.3756 15.2526 27.5084 16.7664H21.1742ZM18.027 24.4153C16.885 24.4153 15.9288 24.7606 15.1586 25.4511C14.415 26.115 14.0432 27.0712 14.0432 28.3194C14.0432 29.5942 14.3885 30.5902 15.079 31.3072C15.7961 32.0243 16.8053 32.3829 18.1066 32.3829C19.2752 32.3829 20.1915 32.0376 20.8555 31.3471C21.546 30.63 21.8912 29.6606 21.8912 28.4389C21.8912 27.1907 21.5593 26.208 20.8953 25.4909C20.2313 24.7738 19.2752 24.4153 18.027 24.4153ZM32.1582 23.0608C32.1582 18.4927 33.0346 14.8941 34.7875 12.2648C36.5669 9.63546 39.422 8.32081 43.3526 8.32081C47.2833 8.32081 50.1251 9.63546 51.8779 12.2648C53.6574 14.8941 54.5471 18.4927 54.5471 23.0608C54.5471 27.682 53.6574 31.3072 51.8779 33.9365C50.1251 36.5658 47.2833 37.8805 43.3526 37.8805C39.422 37.8805 36.5669 36.5658 34.7875 33.9365C33.0346 31.3072 32.1582 27.682 32.1582 23.0608ZM47.8543 23.0608C47.8543 20.3784 47.5622 18.3201 46.9779 16.8859C46.3936 15.4252 45.1852 14.6949 43.3526 14.6949C41.5201 14.6949 40.3117 15.4252 39.7274 16.8859C39.1431 18.3201 38.851 20.3784 38.851 23.0608C38.851 24.8668 38.9572 26.3674 39.1697 27.5625C39.3821 28.7311 39.8071 29.6872 40.4445 30.4308C41.1084 31.1479 42.0778 31.5064 43.3526 31.5064C44.6274 31.5064 45.5836 31.1479 46.221 30.4308C46.8849 29.6872 47.3231 28.7311 47.5356 27.5625C47.7481 26.3674 47.8543 24.8668 47.8543 23.0608ZM58.1462 23.0608C58.1462 18.4927 59.0226 14.8941 60.7755 12.2648C62.5549 9.63546 65.4099 8.32081 69.3406 8.32081C73.2713 8.32081 76.113 9.63546 77.8659 12.2648C79.6453 14.8941 80.535 18.4927 80.535 23.0608C80.535 27.682 79.6453 31.3072 77.8659 33.9365C76.113 36.5658 73.2713 37.8805 69.3406 37.8805C65.4099 37.8805 62.5549 36.5658 60.7755 33.9365C59.0226 31.3072 58.1462 27.682 58.1462 23.0608ZM73.8423 23.0608C73.8423 20.3784 73.5501 18.3201 72.9658 16.8859C72.3816 15.4252 71.1731 14.6949 69.3406 14.6949C67.5081 14.6949 66.2996 15.4252 65.7154 16.8859C65.1311 18.3201 64.8389 20.3784 64.8389 23.0608C64.8389 24.8668 64.9452 26.3674 65.1576 27.5625C65.3701 28.7311 65.795 29.6872 66.4324 30.4308C67.0964 31.1479 68.0658 31.5064 69.3406 31.5064C70.6154 31.5064 71.5715 31.1479 72.2089 30.4308C72.8729 29.6872 73.3111 28.7311 73.5236 27.5625C73.736 26.3674 73.8423 24.8668 73.8423 23.0608Z" fill="#3F4ED6"/>
<path d="M0.504 58.978C0.504 57.934 0.714 57.022 1.134 56.242C1.566 55.462 2.16 54.862 2.916 54.442C3.684 54.022 4.56 53.812 5.544 53.812C6.804 53.812 7.854 54.142 8.694 54.802C9.546 55.462 10.104 56.392 10.368 57.592H7.092C6.816 56.824 6.282 56.44 5.49 56.44C4.926 56.44 4.476 56.662 4.14 57.106C3.804 57.538 3.636 58.162 3.636 58.978C3.636 59.794 3.804 60.424 4.14 60.868C4.476 61.3 4.926 61.516 5.49 61.516C6.282 61.516 6.816 61.132 7.092 60.364H10.368C10.104 61.54 9.546 62.464 8.694 63.136C7.842 63.808 6.792 64.144 5.544 64.144C4.56 64.144 3.684 63.934 2.916 63.514C2.16 63.094 1.566 62.494 1.134 61.714C0.714 60.934 0.504 60.022 0.504 58.978ZM16.5864 64.144C15.6024 64.144 14.7144 63.934 13.9224 63.514C13.1424 63.094 12.5244 62.494 12.0684 61.714C11.6244 60.934 11.4024 60.022 11.4024 58.978C11.4024 57.946 11.6304 57.04 12.0864 56.26C12.5424 55.468 13.1664 54.862 13.9584 54.442C14.7504 54.022 15.6384 53.812 16.6224 53.812C17.6064 53.812 18.4944 54.022 19.2864 54.442C20.0784 54.862 20.7024 55.468 21.1584 56.26C21.6144 57.04 21.8424 57.946 21.8424 58.978C21.8424 60.01 21.6084 60.922 21.1404 61.714C20.6844 62.494 20.0544 63.094 19.2504 63.514C18.4584 63.934 17.5704 64.144 16.5864 64.144ZM16.5864 61.48C17.1744 61.48 17.6724 61.264 18.0804 60.832C18.5004 60.4 18.7104 59.782 18.7104 58.978C18.7104 58.174 18.5064 57.556 18.0984 57.124C17.7024 56.692 17.2104 56.476 16.6224 56.476C16.0224 56.476 15.5244 56.692 15.1284 57.124C14.7324 57.544 14.5344 58.162 14.5344 58.978C14.5344 59.782 14.7264 60.4 15.1104 60.832C15.5064 61.264 15.9984 61.48 16.5864 61.48ZM36.2914 53.848C37.5394 53.848 38.5294 54.226 39.2614 54.982C40.0054 55.738 40.3774 56.788 40.3774 58.132V64H37.3174V58.546C37.3174 57.898 37.1434 57.4 36.7954 57.052C36.4594 56.692 35.9914 56.512 35.3914 56.512C34.7914 56.512 34.3174 56.692 33.9694 57.052C33.6334 57.4 33.4654 57.898 33.4654 58.546V64H30.4054V58.546C30.4054 57.898 30.2314 57.4 29.8834 57.052C29.5474 56.692 29.0794 56.512 28.4794 56.512C27.8794 56.512 27.4054 56.692 27.0574 57.052C26.7214 57.4 26.5534 57.898 26.5534 58.546V64H23.4754V53.956H26.5534V55.216C26.8654 54.796 27.2734 54.466 27.7774 54.226C28.2814 53.974 28.8514 53.848 29.4874 53.848C30.2434 53.848 30.9154 54.01 31.5034 54.334C32.1034 54.658 32.5714 55.12 32.9074 55.72C33.2554 55.168 33.7294 54.718 34.3294 54.37C34.9294 54.022 35.5834 53.848 36.2914 53.848ZM45.6081 55.378C45.9081 54.91 46.3221 54.532 46.8501 54.244C47.3781 53.956 47.9961 53.812 48.7041 53.812C49.5321 53.812 50.2821 54.022 50.9541 54.442C51.6261 54.862 52.1541 55.462 52.5381 56.242C52.9341 57.022 53.1321 57.928 53.1321 58.96C53.1321 59.992 52.9341 60.904 52.5381 61.696C52.1541 62.476 51.6261 63.082 50.9541 63.514C50.2821 63.934 49.5321 64.144 48.7041 64.144C48.0081 64.144 47.3901 64 46.8501 63.712C46.3221 63.424 45.9081 63.052 45.6081 62.596V68.788H42.5301V53.956H45.6081V55.378ZM50.0001 58.96C50.0001 58.192 49.7841 57.592 49.3521 57.16C48.9321 56.716 48.4101 56.494 47.7861 56.494C47.1741 56.494 46.6521 56.716 46.2201 57.16C45.8001 57.604 45.5901 58.21 45.5901 58.978C45.5901 59.746 45.8001 60.352 46.2201 60.796C46.6521 61.24 47.1741 61.462 47.7861 61.462C48.3981 61.462 48.9201 61.24 49.3521 60.796C49.7841 60.34 50.0001 59.728 50.0001 58.96ZM54.1349 58.96C54.1349 57.928 54.3269 57.022 54.7109 56.242C55.1069 55.462 55.6409 54.862 56.3129 54.442C56.9849 54.022 57.7349 53.812 58.5629 53.812C59.2709 53.812 59.8889 53.956 60.4169 54.244C60.9569 54.532 61.3709 54.91 61.6589 55.378V53.956H64.7369V64H61.6589V62.578C61.3589 63.046 60.9389 63.424 60.3989 63.712C59.8709 64 59.2529 64.144 58.5449 64.144C57.7289 64.144 56.9849 63.934 56.3129 63.514C55.6409 63.082 55.1069 62.476 54.7109 61.696C54.3269 60.904 54.1349 59.992 54.1349 58.96ZM61.6589 58.978C61.6589 58.21 61.4429 57.604 61.0109 57.16C60.5909 56.716 60.0749 56.494 59.4629 56.494C58.8509 56.494 58.3289 56.716 57.8969 57.16C57.4769 57.592 57.2669 58.192 57.2669 58.96C57.2669 59.728 57.4769 60.34 57.8969 60.796C58.3289 61.24 58.8509 61.462 59.4629 61.462C60.0749 61.462 60.5909 61.24 61.0109 60.796C61.4429 60.352 61.6589 59.746 61.6589 58.978ZM73.0837 53.848C74.2597 53.848 75.1957 54.232 75.8917 55C76.5997 55.756 76.9537 56.8 76.9537 58.132V64H73.8937V58.546C73.8937 57.874 73.7197 57.352 73.3717 56.98C73.0237 56.608 72.5557 56.422 71.9677 56.422C71.3797 56.422 70.9117 56.608 70.5637 56.98C70.2157 57.352 70.0417 57.874 70.0417 58.546V64H66.9637V53.956H70.0417V55.288C70.3537 54.844 70.7737 54.496 71.3017 54.244C71.8297 53.98 72.4237 53.848 73.0837 53.848ZM80.6406 52.912C80.1006 52.912 79.6566 52.756 79.3086 52.444C78.9726 52.12 78.8046 51.724 78.8046 51.256C78.8046 50.776 78.9726 50.38 79.3086 50.068C79.6566 49.744 80.1006 49.582 80.6406 49.582C81.1686 49.582 81.6006 49.744 81.9366 50.068C82.2846 50.38 82.4586 50.776 82.4586 51.256C82.4586 51.724 82.2846 52.12 81.9366 52.444C81.6006 52.756 81.1686 52.912 80.6406 52.912ZM82.1706 53.956V64H79.0926V53.956H82.1706ZM85.9492 52.912C85.4092 52.912 84.9652 52.756 84.6172 52.444C84.2812 52.12 84.1132 51.724 84.1132 51.256C84.1132 50.776 84.2812 50.38 84.6172 50.068C84.9652 49.744 85.4092 49.582 85.9492 49.582C86.4772 49.582 86.9092 49.744 87.2452 50.068C87.5932 50.38 87.7672 50.776 87.7672 51.256C87.7672 51.724 87.5932 52.12 87.2452 52.444C86.9092 52.756 86.4772 52.912 85.9492 52.912ZM87.4792 53.956V64H84.4012V53.956H87.4792Z" fill="#ACB4FF"/>
</svg>
