<svg width="32" height="32" viewBox="0 0 32 32" fill="none" xmlns="http://www.w3.org/2000/svg">
<circle cx="16" cy="16" r="16" fill="#3F4ED6"/>
<path d="M16.0006 13.3971C14.567 13.3971 13.3971 14.567 13.3971 16.0006C13.3971 17.4342 14.567 18.6041 16.0006 18.6041C17.4342 18.6041 18.6041 17.4342 18.6041 16.0006C18.6041 14.567 17.4342 13.3971 16.0006 13.3971ZM23.8092 16.0006C23.8092 14.9225 23.8189 13.8541 23.7584 12.7779C23.6978 11.5279 23.4127 10.4185 22.4986 9.50449C21.5826 8.58847 20.4752 8.30527 19.2252 8.24472C18.1471 8.18417 17.0787 8.19394 16.0025 8.19394C14.9244 8.19394 13.8561 8.18417 12.7799 8.24472C11.5299 8.30527 10.4205 8.59042 9.50644 9.50449C8.59042 10.4205 8.30722 11.5279 8.24667 12.7779C8.18613 13.856 8.19589 14.9244 8.19589 16.0006C8.19589 17.0768 8.18613 18.1471 8.24667 19.2232C8.30722 20.4732 8.59238 21.5826 9.50644 22.4967C10.4225 23.4127 11.5299 23.6959 12.7799 23.7564C13.858 23.817 14.9264 23.8072 16.0025 23.8072C17.0807 23.8072 18.149 23.817 19.2252 23.7564C20.4752 23.6959 21.5846 23.4107 22.4986 22.4967C23.4146 21.5807 23.6978 20.4732 23.7584 19.2232C23.8209 18.1471 23.8092 17.0787 23.8092 16.0006ZM16.0006 20.0064C13.7838 20.0064 11.9947 18.2174 11.9947 16.0006C11.9947 13.7838 13.7838 11.9947 16.0006 11.9947C18.2174 11.9947 20.0064 13.7838 20.0064 16.0006C20.0064 18.2174 18.2174 20.0064 16.0006 20.0064ZM20.1705 12.7662C19.6529 12.7662 19.235 12.3482 19.235 11.8307C19.235 11.3131 19.6529 10.8951 20.1705 10.8951C20.6881 10.8951 21.1061 11.3131 21.1061 11.8307C21.1062 11.9536 21.0821 12.0753 21.0351 12.1889C20.9882 12.3024 20.9193 12.4056 20.8324 12.4925C20.7455 12.5794 20.6423 12.6483 20.5287 12.6953C20.4151 12.7423 20.2934 12.7664 20.1705 12.7662Z" fill="white"/>
</svg>
