<svg width="24" height="38" viewBox="0 0 24 38" fill="none" xmlns="http://www.w3.org/2000/svg">
<g clip-path="url(#clip0_89_3282)">
<path d="M7.19879 4.75C7.19879 3.49022 7.7045 2.28204 8.60467 1.39124C9.50485 0.500445 10.7257 0 11.9988 0C13.2718 0 14.4927 0.500445 15.3929 1.39124C16.2931 2.28204 16.7988 3.49022 16.7988 4.75C16.7988 6.00978 16.2931 7.21796 15.3929 8.10876C14.4927 8.99956 13.2718 9.5 11.9988 9.5C10.7257 9.5 9.50485 8.99956 8.60467 8.10876C7.7045 7.21796 7.19879 6.00978 7.19879 4.75ZM10.7988 28.5V35.625C10.7988 36.9387 9.72629 38 8.39879 38C7.07129 38 5.99879 36.9387 5.99879 35.625V21.3602L4.43129 23.8242C3.72629 24.9375 2.24129 25.2641 1.12379 24.5664C0.00628538 23.8687 -0.338715 22.4066 0.366285 21.3008L3.35879 16.6027C5.22629 13.6562 8.48879 11.875 11.9988 11.875C15.5088 11.875 18.7713 13.6563 20.6388 16.5953L23.6313 21.3008C24.3363 22.4141 23.9988 23.8762 22.8813 24.5738C21.7638 25.2715 20.2788 24.9375 19.5738 23.8316L17.9988 21.3602V35.625C17.9988 36.9387 16.9263 38 15.5988 38C14.2713 38 13.1988 36.9387 13.1988 35.625V28.5H10.7988Z" fill="#9A9A9A"/>
</g>
<defs>
<clipPath id="clip0_89_3282">
<rect width="24" height="38" fill="white"/>
</clipPath>
</defs>
</svg>
