<?xml version="1.0" encoding="UTF-8"?>
<svg id="Layer_1" data-name="Layer 1" xmlns="http://www.w3.org/2000/svg" viewBox="0 0 283.46 283.46">
  <defs>
    <style>
      .cls-1 {
        fill: #3F4ED6;
      }
    </style>
  </defs>
  <g>
    <path class="cls-1" d="m83.68,145.74c.04,1.64,1.6,2.38,3.24,2.34,1.68,0,3.36-.49,3.41-2.26,0-1.6-1.44-1.76-2.83-1.97-3.98-.53-9.15-1.07-9.15-5.87,0-4.43,3.65-6.52,8.49-6.52s8.78,2.13,8.57,6.32h-5.42c-.04-1.44-1.44-2.01-3.08-2.01s-3.04.74-3.04,2.05c0,1.48,1.56,1.68,2.83,1.81,4.43.53,9.48.9,9.35,6.19-.12,4.72-4.43,6.48-8.9,6.48s-9.03-1.31-9.23-6.56h5.74Z"/>
    <path class="cls-1" d="m118.93,131.99v13.83c0,1.85.08,2.5,1.85,2.38l.04,3.57c-2.79.66-7.22.94-7.22-2.87-1.11,2.3-3.86,3.16-6.32,3.16-5.7,0-7.34-3.82-7.34-8.74v-11.32h5.78v11.32c-.12,2.79,1.4,4.23,3.41,4.23,2.3.04,4.06-1.68,4.06-4.35v-11.2h5.74Z"/>
    <path class="cls-1" d="m136.53,131.42c5.78,0,8.9,4.92,8.9,10.3,0,7.84-7.14,12.68-14.03,9.19v10.99h-5.74v-23.22c0-1.89.25-3.12-1.85-2.99l-.04-3.82c2.67-.57,6.52-.62,6.52,3.16,1.11-2.46,3.69-3.61,6.24-3.61Zm-5.29,14.73c4.06,2.42,8.41.57,8.41-4.43,0-2.63-1.39-5.25-4.31-5.25-2.58.04-4.06,2.17-4.1,4.51v5.17Z"/>
    <path class="cls-1" d="m167.59,143.07h-13.42c.21,3.08,2.5,4.27,5.25,4.47.82.04,1.76.08,2.63-.04,1.76-.21,3.53-.66,4.72-1.19l.66,4.18c-2.34,1.11-5.05,1.76-7.67,1.76-6.65.12-11.32-3.94-11.32-10.63.12-6.89,5.13-10.13,10.38-10.13,7.22,0,10.3,4.84,8.78,11.57Zm-13.37-3.69h8.7c.12-2.58-1.97-3.49-4.1-3.49s-4.14,1.19-4.6,3.49Z"/>
    <path class="cls-1" d="m183.91,131.38c1.52-.04,3.08.41,4.23,1.27l-1.27,4.8c-1.19-.78-2.42-1.11-3.69-1.07-2.5,0-4.64,1.64-4.64,4.68v10.71h-5.62v-13.95c0-1.64-.16-2.71-1.97-2.42v-3.53c2.87-.66,7.1-.66,7.43,2.87.82-2.26,3.12-3.36,5.54-3.36Z"/>
    <path class="cls-1" d="m194.38,136.09h-3.65v-4.06h3.73l.04-2.5c0-8.08,6.24-9.07,12.72-7.1l-.57,4.27c-2.95-1.11-6.69-1.27-6.69,2.95v2.38h6.24v4.06h-6.24v15.67h-5.58v-15.67Z"/>
    <path class="cls-1" d="m214.89,121.74v22.52c0,3.04,1.19,3.65,3.94,3.2l.2,4.31c-6.11,1.11-9.81-.41-9.81-7.51v-22.52h5.66Z"/>
    <path class="cls-1" d="m232.58,153.69c-2.5,6.44-5.09,9.85-12.27,7.22l.62-3.98c3.24,1.44,4.92.21,6.07-3.08l.74-2.05-8.66-19.16v-.66h6.03l2.67,6.69,2.58,7.3h.12l2.26-7.26,2.38-6.73h5.83v.66l-8.37,21.05Z"/>
  </g>
  <path class="cls-1" d="m68.63,124.42h-22.03c-2.25,0-4.08,1.83-4.08,4.08v17.92c0,3.11,3.77,4.67,5.97,2.47l2.96-2.96-1.62-.62c-.15-.06-.25-.18-.29-.33-.03-.15.01-.31.12-.42l.52-.52,3.33-.18,3.28-3.59-6.48-3.58c-.18-.1-.3-.27-.33-.48-.03-.2.04-.41.18-.55l.56-.56c.16-.16.38-.22.6-.18l2.76.6.77-.77c.28-.28.78-.28,1.06,0,.29.29.29.77,0,1.06l-.09.09,1.33.29.57-.57c.29-.29.77-.29,1.06,0,.26.26.29.65.1.94l1.12.24,1.88-1.88c.61-.61,1.38-1,2.23-1.13.44-.07.87.07,1.18.39.31.31.45.74.39,1.18-.13.85-.52,1.62-1.13,2.23h0s-1.88,1.88-1.88,1.88l.25,1.13c.29-.18.7-.15.94.09.14.14.22.33.22.53s-.08.39-.22.53l-.57.57.29,1.33.09-.09c.29-.29.77-.29,1.06,0,.14.14.22.33.22.53s-.08.39-.22.53l-.78.78.6,2.76c.05.22-.02.44-.18.6l-.56.56c-.15.15-.35.21-.55.18-.2-.03-.38-.15-.48-.33l-3.58-6.48-3.59,3.28-.18,3.33-.52.52c-.09.09-.2.14-.32.14-.03,0-.06,0-.1-.01-.15-.03-.28-.14-.33-.29l-.62-1.62-1.69,1.72c-3.49,3.57-.96,9.57,4.03,9.57h0c9.28,0,16.8-7.52,16.8-16.8v-14.05c0-2.25-1.83-4.08-4.08-4.08Z"/>
</svg>