<svg width="20" height="20" viewBox="0 0 20 20" fill="none" xmlns="http://www.w3.org/2000/svg">
<path d="M16.666 3.33398H3.33268C2.41602 3.33398 1.66602 4.08398 1.66602 5.00065V15.0007C1.66602 15.9173 2.41602 16.6673 3.33268 16.6673H16.666C17.5827 16.6673 18.3327 15.9173 18.3327 15.0007V5.00065C18.3327 4.08398 17.5827 3.33398 16.666 3.33398ZM16.3327 6.87565L10.8827 10.284C10.341 10.6257 9.65768 10.6257 9.11601 10.284L3.66602 6.87565C3.58246 6.82874 3.50928 6.76537 3.45092 6.68936C3.39256 6.61336 3.35023 6.5263 3.3265 6.43346C3.30276 6.34062 3.2981 6.24393 3.31281 6.14924C3.32752 6.05455 3.3613 5.96383 3.41208 5.88257C3.46287 5.80131 3.52962 5.7312 3.60829 5.67648C3.68696 5.62176 3.77591 5.58358 3.86976 5.56423C3.96362 5.54489 4.06042 5.54479 4.15431 5.56394C4.2482 5.58309 4.33724 5.6211 4.41602 5.67565L9.99935 9.16732L15.5827 5.67565C15.6615 5.6211 15.7505 5.58309 15.8444 5.56394C15.9383 5.54479 16.0351 5.54489 16.1289 5.56423C16.2228 5.58358 16.3117 5.62176 16.3904 5.67648C16.4691 5.7312 16.5358 5.80131 16.5866 5.88257C16.6374 5.96383 16.6712 6.05455 16.6859 6.14924C16.7006 6.24393 16.6959 6.34062 16.6722 6.43346C16.6485 6.5263 16.6061 6.61336 16.5478 6.68936C16.4894 6.76537 16.4162 6.82874 16.3327 6.87565Z" fill="#3F4ED6"/>
</svg>
