<svg xmlns="http://www.w3.org/2000/svg" xmlns:xlink="http://www.w3.org/1999/xlink" width="800" zoomAndPan="magnify" viewBox="0 0 600 599.999999" height="800" preserveAspectRatio="xMidYMid meet" version="1.0"><defs><clipPath id="fcf8f427d2"><path d="M 29 462 L 572 462 L 572 532.71875 L 29 532.71875 Z M 29 462 " clip-rule="nonzero"/></clipPath></defs><g clip-path="url(#fcf8f427d2)"><path fill="#000000" d="M 108.746094 531.65625 L 108.746094 500.75 C 108.746094 488.929688 101.542969 481.1875 89.171875 481.1875 C 82.988281 481.1875 76.261719 483.230469 71.636719 489.949219 C 68.035156 484.308594 62.871094 481.1875 55.125 481.1875 C 49.960938 481.1875 44.796875 482.75 40.710938 488.390625 L 40.710938 482.207031 L 29.902344 482.207031 L 29.902344 531.65625 L 40.710938 531.65625 L 40.710938 504.351562 C 40.710938 495.589844 45.335938 491.449219 52.542969 491.449219 C 59.746094 491.449219 63.351562 496.070312 63.351562 504.351562 L 63.351562 531.65625 L 74.160156 531.65625 L 74.160156 504.351562 C 74.160156 495.589844 79.324219 491.449219 85.988281 491.449219 C 93.195312 491.449219 96.796875 496.070312 96.796875 504.351562 L 96.796875 531.65625 Z M 269.074219 482.207031 L 251.542969 482.207031 L 251.542969 467.265625 L 240.734375 467.265625 L 240.734375 482.207031 L 230.945312 482.207031 L 230.945312 491.988281 L 240.734375 491.988281 L 240.734375 514.671875 C 240.734375 526.015625 245.355469 532.675781 257.726562 532.675781 C 262.351562 532.675781 267.515625 531.117188 271.117188 529.074219 L 267.996094 519.773438 C 264.871094 521.816406 261.269531 522.355469 258.6875 522.355469 C 253.523438 522.355469 251.480469 519.234375 251.480469 514.132812 L 251.480469 491.988281 L 269.015625 491.988281 L 269.015625 482.207031 Z M 360.828125 481.128906 C 354.644531 481.128906 350.5 484.25 347.917969 488.328125 L 347.917969 482.148438 L 337.109375 482.148438 L 337.109375 531.597656 L 347.917969 531.597656 L 347.917969 503.75 C 347.917969 495.53125 351.519531 490.851562 358.246094 490.851562 C 360.289062 490.851562 362.871094 491.390625 364.972656 491.871094 L 368.09375 481.546875 C 365.933594 481.128906 362.871094 481.128906 360.828125 481.128906 Z M 222.175781 486.289062 C 217.011719 482.6875 209.808594 481.128906 202.0625 481.128906 C 189.691406 481.128906 181.464844 487.308594 181.464844 497.089844 C 181.464844 505.3125 187.648438 509.992188 198.457031 511.492188 L 203.621094 512.03125 C 209.265625 513.054688 212.390625 514.613281 212.390625 517.195312 C 212.390625 520.792969 208.246094 523.375 201.039062 523.375 C 193.835938 523.375 188.128906 520.792969 184.527344 518.214844 L 179.363281 526.433594 C 185.007812 530.574219 192.753906 532.617188 200.5 532.617188 C 214.910156 532.617188 223.199219 525.894531 223.199219 516.652344 C 223.199219 507.890625 216.472656 503.273438 206.203125 501.710938 L 201.039062 501.171875 C 196.417969 500.632812 192.8125 499.609375 192.8125 496.550781 C 192.8125 492.949219 196.417969 490.910156 202.121094 490.910156 C 208.304688 490.910156 214.492188 493.492188 217.613281 495.050781 Z M 509.746094 481.128906 C 503.5625 481.128906 499.417969 484.25 496.835938 488.328125 L 496.835938 482.148438 L 486.027344 482.148438 L 486.027344 531.597656 L 496.835938 531.597656 L 496.835938 503.75 C 496.835938 495.53125 500.441406 490.851562 507.164062 490.851562 C 509.207031 490.851562 511.789062 491.390625 513.890625 491.871094 L 517.011719 481.667969 C 514.910156 481.128906 511.847656 481.128906 509.746094 481.128906 Z M 371.636719 506.933594 C 371.636719 521.875 381.964844 532.675781 397.9375 532.675781 C 405.144531 532.675781 410.308594 531.117188 415.472656 527.035156 L 410.308594 518.273438 C 406.164062 521.394531 402.082031 522.894531 397.398438 522.894531 C 388.632812 522.894531 382.445312 516.714844 382.445312 506.933594 C 382.445312 497.632812 388.632812 491.449219 397.398438 490.96875 C 402.023438 490.96875 406.164062 492.53125 410.308594 495.589844 L 415.472656 486.828125 C 410.308594 482.6875 405.144531 481.1875 397.9375 481.1875 C 381.964844 481.128906 371.636719 491.988281 371.636719 506.933594 Z M 471.617188 506.933594 L 471.617188 482.207031 L 460.808594 482.207031 L 460.808594 488.390625 C 457.207031 483.769531 452.042969 481.1875 445.316406 481.1875 C 431.386719 481.1875 420.578125 491.988281 420.578125 506.933594 C 420.578125 521.875 431.386719 532.675781 445.316406 532.675781 C 452.523438 532.675781 457.6875 530.09375 460.808594 525.476562 L 460.808594 531.65625 L 471.617188 531.65625 Z M 431.925781 506.933594 C 431.925781 498.171875 437.570312 490.96875 446.878906 490.96875 C 455.644531 490.96875 461.828125 497.691406 461.828125 506.933594 C 461.828125 515.695312 455.644531 522.894531 446.878906 522.894531 C 437.628906 522.355469 431.925781 515.632812 431.925781 506.933594 Z M 302.582031 481.128906 C 288.171875 481.128906 277.84375 491.449219 277.84375 506.871094 C 277.84375 522.355469 288.171875 532.617188 303.121094 532.617188 C 310.328125 532.617188 317.535156 530.574219 323.238281 525.894531 L 318.074219 518.152344 C 313.929688 521.273438 308.765625 523.316406 303.664062 523.316406 C 296.9375 523.316406 290.273438 520.195312 288.710938 511.492188 L 325.28125 511.492188 C 325.28125 509.933594 325.28125 508.914062 325.28125 507.351562 C 325.761719 491.449219 316.453125 481.128906 302.582031 481.128906 Z M 302.582031 490.429688 C 309.308594 490.429688 313.929688 494.570312 314.953125 502.25 L 289.191406 502.25 C 290.210938 495.589844 294.835938 490.429688 302.582031 490.429688 Z M 571.117188 506.933594 L 571.117188 462.644531 L 560.308594 462.644531 L 560.308594 488.390625 C 556.707031 483.769531 551.542969 481.1875 544.816406 481.1875 C 530.882812 481.1875 520.074219 491.988281 520.074219 506.933594 C 520.074219 521.875 530.882812 532.675781 544.816406 532.675781 C 552.023438 532.675781 557.1875 530.097656 560.308594 525.476562 L 560.308594 531.65625 L 571.117188 531.65625 Z M 531.425781 506.933594 C 531.425781 498.171875 537.070312 490.96875 546.378906 490.96875 C 555.144531 490.96875 561.328125 497.691406 561.328125 506.933594 C 561.328125 515.695312 555.144531 522.894531 546.378906 522.894531 C 537.070312 522.355469 531.425781 515.632812 531.425781 506.933594 Z M 169.574219 506.933594 L 169.574219 482.207031 L 158.765625 482.207031 L 158.765625 488.390625 C 155.164062 483.769531 150 481.1875 143.273438 481.1875 C 129.34375 481.1875 118.535156 491.988281 118.535156 506.933594 C 118.535156 521.875 129.34375 532.675781 143.273438 532.675781 C 150.480469 532.675781 155.644531 530.09375 158.765625 525.476562 L 158.765625 531.65625 L 169.574219 531.65625 Z M 129.402344 506.933594 C 129.402344 498.171875 135.046875 490.96875 144.355469 490.96875 C 153.121094 490.96875 159.308594 497.691406 159.308594 506.933594 C 159.308594 515.695312 153.121094 522.894531 144.355469 522.894531 C 135.046875 522.355469 129.402344 515.632812 129.402344 506.933594 Z M 129.402344 506.933594 " fill-opacity="1" fill-rule="nonzero"/></g><path fill="#ff5a00" d="M 218.574219 106.671875 L 380.945312 106.671875 L 380.945312 398.195312 L 218.574219 398.195312 Z M 218.574219 106.671875 " fill-opacity="1" fill-rule="nonzero"/><path fill="#eb001b" d="M 229.382812 252.433594 C 229.382812 193.207031 257.246094 140.640625 300 106.671875 C 268.535156 81.949219 228.84375 67.007812 185.546875 67.007812 C 82.988281 67.007812 0 149.941406 0 252.433594 C 0 354.929688 82.988281 437.863281 185.546875 437.863281 C 228.84375 437.863281 268.535156 422.921875 300 398.195312 C 257.1875 364.710938 229.382812 311.664062 229.382812 252.433594 Z M 229.382812 252.433594 " fill-opacity="1" fill-rule="nonzero"/><path fill="#f79e1b" d="M 600 252.433594 C 600 354.929688 517.011719 437.863281 414.453125 437.863281 C 371.15625 437.863281 331.464844 422.921875 300 398.195312 C 343.292969 364.171875 370.617188 311.664062 370.617188 252.433594 C 370.617188 193.207031 342.753906 140.640625 300 106.671875 C 331.40625 81.949219 371.097656 67.007812 414.390625 67.007812 C 517.011719 67.007812 600 150.480469 600 252.433594 Z M 600 252.433594 " fill-opacity="1" fill-rule="nonzero"/></svg>