<svg width="79" height="40" viewBox="0 0 79 40" fill="none" xmlns="http://www.w3.org/2000/svg">
<path d="M6.30963 24.0138C3.44893 24.0138 1.59769 26.2012 1.59769 28.8939C1.59769 31.4179 3.44893 33.6058 6.30963 33.6058C9.0018 33.6058 10.6845 31.5865 10.6845 28.8939C10.6845 26.0331 9.0018 24.0138 6.30963 24.0138ZM1.59769 25.1918C2.60714 23.6772 4.29029 22.6677 6.47773 22.6677C9.84316 22.6677 12.3672 25.1918 12.3672 28.8939C12.3672 32.4278 9.84316 34.9519 6.47773 34.9519C4.29029 34.9519 2.60714 34.1105 1.59769 32.5959V39.1587C1.59769 39.6638 1.26106 40 0.924426 40C0.419698 40 0.0830688 39.6638 0.0830688 39.1587V23.5091C0.0830688 23.1724 0.419698 22.8358 0.924426 22.8358C1.26106 22.8358 1.59769 23.1724 1.59769 23.5091V25.1918Z" fill="#EC6665"/>
<path d="M21.286 24.0138C18.5934 24.0138 16.7426 26.2012 16.7426 28.8939C16.7426 31.5865 18.5934 33.6058 21.286 33.6058C23.9781 33.6058 25.8294 31.4179 25.8294 28.8939C25.8294 26.0331 23.9781 24.0138 21.286 24.0138ZM27.5121 34.1105C27.5121 34.6153 27.1755 34.9519 26.6707 34.9519C26.166 34.9519 25.8294 34.6153 25.8294 34.1105V32.7644C24.8195 34.1105 23.3053 34.9519 21.286 34.9519C17.4154 34.9519 15.2279 32.0912 15.2279 28.8939C15.2279 25.0237 17.9201 22.6677 21.286 22.6677C24.8195 22.6677 27.5121 25.1918 27.5121 28.8939V34.1105Z" fill="#EC6665"/>
<path d="M40.6376 23.8454C40.6376 23.8454 37.945 30.4081 36.5989 33.4374C35.5895 35.9615 33.9067 38.3174 31.5508 39.8316C31.3822 39.8316 31.2141 40.0001 31.0456 40.0001C30.5409 40.0001 30.3728 39.6635 30.3728 39.3269C30.3728 38.9903 30.5409 38.8222 30.7094 38.6536C32.2236 37.6442 33.4016 36.4662 34.4115 34.6154L29.8676 23.8454C29.8676 23.8454 29.6995 23.6773 29.6995 23.5088C29.6995 23.1721 30.0362 22.8359 30.5409 22.8359C30.8775 22.8359 31.0456 23.004 31.2141 23.3407L35.2528 32.9322L39.2915 23.1721C39.4596 23.004 39.6277 22.8359 39.9643 22.8359C40.4695 22.8359 40.6376 23.1721 40.6376 23.5088V23.8454Z" fill="#EC6665"/>
<path d="M53.7636 34.1105C53.7636 34.6153 53.4274 34.9519 52.9222 34.9519C52.4175 34.9519 52.0809 34.6153 52.0809 34.1105V28.0525C52.0809 25.8651 50.3982 24.1823 48.2107 24.1823C46.0228 24.1823 44.3401 25.8651 44.3401 28.0525V34.1105C44.3401 34.6153 44.0035 34.9519 43.4988 34.9519C42.994 34.9519 42.6574 34.6153 42.6574 34.1105V28.2206C42.6574 25.0237 45.0134 22.6677 48.2107 22.6677C51.4081 22.6677 53.7636 25.0237 53.7636 28.2206V34.1105Z" fill="#EC6665"/>
<path d="M63.1879 24.0133C60.8319 24.0133 59.1492 25.8646 58.8126 28.052H67.3947C67.0581 25.6965 65.5439 24.0133 63.1879 24.0133ZM68.9093 28.7253C68.9093 29.0619 68.5727 29.3985 68.2361 29.3985H58.8126C58.8126 31.586 60.4953 33.6053 63.356 33.6053C64.8706 33.6053 66.0486 33.1006 67.0581 31.9226C67.0581 31.7545 67.3947 31.586 67.5632 31.586C68.068 31.586 68.2361 31.9226 68.2361 32.2592C68.2361 32.4273 68.2361 32.5959 68.068 32.764C67.2266 33.9419 65.5439 34.9514 63.356 34.9514C59.4859 34.9514 57.1299 32.0907 57.1299 28.8938C57.1299 25.5279 59.654 22.6672 63.1879 22.6672C66.5533 22.6672 68.9093 25.1913 68.9093 28.7253Z" fill="#EC6665"/>
<path d="M77.8267 23.0039C78.1634 23.0039 78.5 23.3405 78.5 23.6771C78.5 24.0138 78.1634 24.3499 77.8267 24.3499H75.1346V34.11C75.1346 34.6152 74.7979 34.9514 74.2928 34.9514C73.9566 34.9514 73.6199 34.6152 73.6199 34.11V24.3499H71.0959C70.7592 24.3499 70.4226 24.0138 70.4226 23.6771C70.4226 23.3405 70.7592 23.0039 71.0959 23.0039H73.6199V19.3018C73.6199 18.7971 73.9566 18.4604 74.2928 18.4604C74.7979 18.4604 75.1346 18.7971 75.1346 19.3018V23.0039H77.8267Z" fill="#EC6665"/>
<path d="M33.2339 13.4119V9.20508L29.5318 11.3925L33.2339 13.4119Z" fill="#EC6665"/>
<path d="M48.8835 5.16606C48.715 4.66134 48.5469 4.32471 48.3784 3.81998C48.0417 3.31482 47.8736 2.97862 47.537 2.64199C46.359 1.12738 44.5082 0.11792 42.4889 0.11792C42.1522 0.11792 41.9841 0.286018 41.6475 0.286018H40.9742C40.4695 0.454116 39.9648 0.622648 39.6282 0.790746C39.4596 0.959277 39.2915 0.959277 39.2915 0.959277C38.7868 1.29547 38.2821 1.6321 37.7769 1.96873C37.4403 2.30536 37.1041 2.81009 36.9356 3.14672L36.7675 3.31482V3.48335C36.5989 3.48335 36.5989 3.65145 36.4308 3.81998C36.0942 4.4928 35.9261 5.16606 35.7576 5.83932V6.84878V7.52204V8.1953V8.86812V17.2821V17.6188H35.9261H39.9648V13.9167V13.7482V13.0749V12.9068V8.86812V8.70002V8.02677V7.85867V6.84878C39.9648 6.51215 39.9648 6.17595 40.1329 6.00742C40.4695 4.99797 41.3109 4.32471 42.4889 4.32471C42.4889 4.32471 42.657 4.32471 42.8255 4.4928C43.6668 4.4928 44.5082 5.16606 44.6763 6.00742C44.8448 6.34405 44.8448 6.51215 44.8448 6.84878C44.8448 7.18541 44.8448 7.52204 44.6763 7.85867C44.3397 8.36339 44.0035 8.70002 43.6668 8.86812C43.3302 9.20475 42.9936 9.20475 42.657 9.20475V10.3827V11.5607V13.4115C44.1716 13.4115 45.6862 12.7387 46.8642 11.7288C47.8736 10.8875 48.715 9.37285 49.0516 7.85867V7.52204V6.84878C49.0516 6.17595 49.0516 5.67079 48.8835 5.16606Z" fill="#EC6665"/>
</svg>
