<svg xmlns="http://www.w3.org/2000/svg" xmlns:xlink="http://www.w3.org/1999/xlink" width="800" zoomAndPan="magnify" viewBox="0 0 600 599.999999" height="800" preserveAspectRatio="xMidYMid meet" version="1.0"><defs><clipPath id="817ab0891b"><path d="M 3 320 L 97 320 L 97 450.421875 L 3 450.421875 Z M 3 320 " clip-rule="nonzero"/></clipPath><clipPath id="76bf984140"><path d="M 226 321 L 309 321 L 309 450.421875 L 226 450.421875 Z M 226 321 " clip-rule="nonzero"/></clipPath></defs><g clip-path="url(#817ab0891b)"><path fill="#ec6665" d="M 50.527344 330.226562 C 29.027344 330.226562 15.113281 346.671875 15.113281 366.917969 C 15.113281 385.894531 29.027344 402.347656 50.527344 402.347656 C 70.757812 402.347656 83.40625 387.164062 83.40625 366.917969 C 83.40625 345.410156 70.757812 330.226562 50.527344 330.226562 Z M 15.113281 339.082031 C 22.703125 327.695312 35.351562 320.105469 51.789062 320.105469 C 77.082031 320.105469 96.050781 339.082031 96.050781 366.917969 C 96.050781 393.488281 77.082031 412.46875 51.789062 412.46875 C 35.351562 412.46875 22.703125 406.140625 15.113281 394.753906 L 15.113281 444.097656 C 15.113281 447.894531 12.585938 450.421875 10.054688 450.421875 C 6.261719 450.421875 3.730469 447.894531 3.730469 444.097656 L 3.730469 326.433594 C 3.730469 323.898438 6.261719 321.371094 10.054688 321.371094 C 12.585938 321.371094 15.113281 323.898438 15.113281 326.433594 Z M 15.113281 339.082031 " fill-opacity="1" fill-rule="nonzero"/></g><path fill="#ec6665" d="M 163.078125 330.226562 C 142.84375 330.226562 128.933594 346.671875 128.933594 366.917969 C 128.933594 387.164062 142.84375 402.347656 163.078125 402.347656 C 183.3125 402.347656 197.226562 385.894531 197.226562 366.917969 C 197.226562 345.410156 183.3125 330.226562 163.078125 330.226562 Z M 209.871094 406.140625 C 209.871094 409.9375 207.339844 412.46875 203.546875 412.46875 C 199.753906 412.46875 197.226562 409.9375 197.226562 406.140625 L 197.226562 396.019531 C 189.636719 406.140625 178.253906 412.46875 163.078125 412.46875 C 133.992188 412.46875 117.550781 390.957031 117.550781 366.917969 C 117.550781 337.820312 137.785156 320.105469 163.078125 320.105469 C 189.636719 320.105469 209.871094 339.082031 209.871094 366.917969 Z M 209.871094 406.140625 " fill-opacity="1" fill-rule="nonzero"/><g clip-path="url(#76bf984140)"><path fill="#ec6665" d="M 308.515625 328.960938 C 308.515625 328.960938 288.277344 378.304688 278.160156 401.082031 C 270.574219 420.058594 257.929688 437.773438 240.222656 449.15625 C 238.957031 449.15625 237.691406 450.421875 236.425781 450.421875 C 232.632812 450.421875 231.371094 447.894531 231.371094 445.363281 C 231.371094 442.832031 232.632812 441.566406 233.898438 440.300781 C 245.28125 432.710938 254.132812 423.851562 261.722656 409.9375 L 227.574219 328.960938 C 227.574219 328.960938 226.308594 327.695312 226.308594 326.429688 C 226.308594 323.898438 228.839844 321.371094 232.632812 321.371094 C 235.164062 321.371094 236.425781 322.632812 237.691406 325.164062 L 268.046875 397.28125 L 298.398438 323.898438 C 299.660156 322.632812 300.925781 321.371094 303.453125 321.371094 C 307.25 321.371094 308.515625 323.898438 308.515625 326.429688 Z M 308.515625 328.960938 " fill-opacity="1" fill-rule="nonzero"/></g><path fill="#ec6665" d="M 407.160156 406.140625 C 407.160156 409.9375 404.632812 412.46875 400.835938 412.46875 C 397.042969 412.46875 394.515625 409.9375 394.515625 406.140625 L 394.515625 360.59375 C 394.515625 344.144531 381.867188 331.492188 365.429688 331.492188 C 348.984375 331.492188 336.339844 344.144531 336.339844 360.59375 L 336.339844 406.140625 C 336.339844 409.9375 333.808594 412.46875 330.015625 412.46875 C 326.222656 412.46875 323.695312 409.9375 323.695312 406.140625 L 323.695312 361.855469 C 323.695312 337.820312 341.398438 320.105469 365.429688 320.105469 C 389.457031 320.105469 407.160156 337.820312 407.160156 361.855469 Z M 407.160156 406.140625 " fill-opacity="1" fill-rule="nonzero"/><path fill="#ec6665" d="M 477.988281 330.222656 C 460.28125 330.222656 447.636719 344.140625 445.105469 360.589844 L 509.605469 360.589844 C 507.074219 342.878906 495.695312 330.222656 477.988281 330.222656 Z M 520.988281 365.652344 C 520.988281 368.183594 518.457031 370.710938 515.925781 370.710938 L 445.105469 370.710938 C 445.105469 387.160156 457.753906 402.34375 479.25 402.34375 C 490.632812 402.34375 499.488281 398.546875 507.074219 389.691406 C 507.074219 388.425781 509.605469 387.160156 510.871094 387.160156 C 514.664062 387.160156 515.925781 389.691406 515.925781 392.222656 C 515.925781 393.484375 515.925781 394.753906 514.664062 396.015625 C 508.339844 404.875 495.695312 412.464844 479.25 412.464844 C 450.167969 412.464844 432.460938 390.953125 432.460938 366.917969 C 432.460938 341.609375 451.429688 320.101562 477.988281 320.101562 C 503.28125 320.101562 520.988281 339.078125 520.988281 365.652344 Z M 520.988281 365.652344 " fill-opacity="1" fill-rule="nonzero"/><path fill="#ec6665" d="M 588.003906 322.632812 C 590.535156 322.632812 593.0625 325.164062 593.0625 327.695312 C 593.0625 330.226562 590.535156 332.753906 588.003906 332.753906 L 567.773438 332.753906 L 567.773438 406.136719 C 567.773438 409.9375 565.242188 412.464844 561.445312 412.464844 C 558.917969 412.464844 556.390625 409.9375 556.390625 406.136719 L 556.390625 332.753906 L 537.417969 332.753906 C 534.890625 332.753906 532.359375 330.226562 532.359375 327.695312 C 532.359375 325.164062 534.890625 322.632812 537.417969 322.632812 L 556.390625 322.632812 L 556.390625 294.796875 C 556.390625 291.003906 558.917969 288.472656 561.445312 288.472656 C 565.242188 288.472656 567.773438 291.003906 567.773438 294.796875 L 567.773438 322.632812 Z M 588.003906 322.632812 " fill-opacity="1" fill-rule="nonzero"/><path fill="#ec6665" d="M 252.871094 250.511719 L 252.871094 218.882812 L 225.050781 235.332031 Z M 252.871094 250.511719 " fill-opacity="1" fill-rule="nonzero"/><path fill="#ec6665" d="M 370.484375 188.515625 C 369.21875 184.71875 367.957031 182.1875 366.6875 178.394531 C 364.160156 174.597656 362.894531 172.066406 360.367188 169.539062 C 351.511719 158.148438 337.601562 150.558594 322.425781 150.558594 C 319.898438 150.558594 318.632812 151.824219 316.105469 151.824219 L 311.042969 151.824219 C 307.25 153.085938 303.457031 154.355469 300.929688 155.617188 C 299.660156 156.886719 298.398438 156.886719 298.398438 156.886719 C 294.605469 159.414062 290.8125 161.945312 287.015625 164.476562 C 284.484375 167.007812 281.957031 170.800781 280.691406 173.332031 L 279.429688 174.597656 L 279.429688 175.863281 C 278.160156 175.863281 278.160156 177.128906 276.898438 178.394531 C 274.367188 183.453125 273.105469 188.515625 271.839844 193.578125 L 271.839844 282.144531 L 303.457031 282.144531 L 303.457031 201.167969 C 303.457031 198.636719 303.457031 196.109375 304.722656 194.839844 C 307.25 187.25 313.574219 182.1875 322.425781 182.1875 C 322.425781 182.1875 323.691406 182.1875 324.957031 183.453125 C 331.28125 183.453125 337.601562 188.515625 338.867188 194.839844 C 340.132812 197.371094 340.132812 198.636719 340.132812 201.167969 C 340.132812 203.699219 340.132812 206.230469 338.867188 208.761719 C 336.335938 212.554688 333.808594 215.085938 331.28125 216.351562 C 328.75 218.882812 326.21875 218.882812 323.691406 218.882812 L 323.691406 250.511719 C 335.074219 250.511719 346.457031 245.453125 355.308594 237.859375 C 362.894531 231.53125 369.21875 220.144531 371.75 208.761719 L 371.75 201.167969 C 371.75 196.109375 371.75 192.308594 370.484375 188.515625 Z M 370.484375 188.515625 " fill-opacity="1" fill-rule="nonzero"/></svg>