<svg width="20" height="20" viewBox="0 0 20 20" fill="none" xmlns="http://www.w3.org/2000/svg">
<g clip-path="url(#clip0_103_3642)">
<path fill-rule="evenodd" clip-rule="evenodd" d="M13.7925 18.4442C12.5925 18.4001 9.19169 17.9301 5.63002 14.3692C2.06919 10.8076 1.60002 7.40756 1.55502 6.20672C1.48835 4.37672 2.89002 2.59922 4.50919 1.90506C4.70417 1.82086 4.91769 1.78881 5.12879 1.81204C5.3399 1.83527 5.54134 1.91298 5.71335 2.03756C7.04669 3.00922 7.96669 4.47922 8.75669 5.63506C8.93051 5.889 9.00483 6.19801 8.96548 6.50322C8.92614 6.80843 8.77589 7.0885 8.54335 7.29006L6.91752 8.49756C6.83897 8.55428 6.78368 8.63758 6.76192 8.73199C6.74015 8.8264 6.7534 8.92551 6.79919 9.01089C7.16752 9.68006 7.82252 10.6767 8.57252 11.4267C9.32335 12.1767 10.3667 12.8751 11.0825 13.2851C11.1723 13.3354 11.2779 13.3495 11.3777 13.3244C11.4775 13.2993 11.564 13.2369 11.6192 13.1501L12.6775 11.5392C12.8721 11.2808 13.1591 11.1076 13.4785 11.056C13.7979 11.0045 14.1248 11.0785 14.3909 11.2626C15.5634 12.0742 16.9317 12.9784 17.9334 14.2609C18.068 14.4341 18.1537 14.6404 18.1814 14.8581C18.2091 15.0758 18.1779 15.2969 18.0909 15.4984C17.3934 17.1259 15.6284 18.5117 13.7925 18.4442Z" fill="#3F4ED6"/>
</g>
<defs>
<clipPath id="clip0_103_3642">
<rect width="20" height="20" fill="white"/>
</clipPath>
</defs>
</svg>
