<svg width="22" height="22" viewBox="0 0 22 22" fill="none" xmlns="http://www.w3.org/2000/svg">
<rect width="22" height="22" rx="8" fill="#3F4ED6"/>
<g clip-path="url(#clip0_103_3346)">
<path d="M16.2254 6.35703C14.9457 4.91328 13.0836 4 11 4C7.13359 4 4 7.13359 4 11H5.75C5.75 8.09883 8.09883 5.75 11 5.75C12.5996 5.75 14.0188 6.47461 14.9785 7.60391L13.3324 9.25H18V4.58242L16.2254 6.35703ZM11 16.25C9.40039 16.25 7.98125 15.5254 7.02148 14.3961L8.66758 12.75H4V17.4176L5.77461 15.643C7.0543 17.0867 8.91914 18 11 18C14.8664 18 18 14.8664 18 11H16.25C16.25 13.9012 13.9012 16.25 11 16.25Z" fill="white"/>
</g>
<defs>
<clipPath id="clip0_103_3346">
<rect width="14" height="14" fill="white" transform="translate(4 4)"/>
</clipPath>
</defs>
</svg>
