<svg width="12" height="12" viewBox="0 0 12 12" fill="none" xmlns="http://www.w3.org/2000/svg">
<path d="M11 11L8.46881 8.46881L11 11ZM8.46881 8.46881C8.87507 8.06254 9.19734 7.58023 9.41721 7.04941C9.63708 6.5186 9.75025 5.94968 9.75025 5.37513C9.75025 4.80058 9.63708 4.23165 9.41721 3.70084C9.19734 3.17002 8.87507 2.68771 8.46881 2.28144C8.06254 1.87518 7.58023 1.55291 7.04941 1.33304C6.5186 1.11317 5.94968 1 5.37513 1C4.80058 1 4.23165 1.11317 3.70084 1.33304C3.17002 1.55291 2.68771 1.87518 2.28144 2.28144C1.46095 3.10194 1 4.21477 1 5.37513C1 6.53548 1.46095 7.64831 2.28144 8.46881C3.10194 9.2893 4.21477 9.75025 5.37513 9.75025C6.53548 9.75025 7.64831 9.2893 8.46881 8.46881Z" fill="#FFED00"/>
<path d="M11 11L8.46881 8.46881M8.46881 8.46881C8.87507 8.06254 9.19734 7.58023 9.41721 7.04941C9.63709 6.5186 9.75025 5.94968 9.75025 5.37513C9.75025 4.80058 9.63709 4.23165 9.41721 3.70084C9.19734 3.17002 8.87507 2.68771 8.46881 2.28144C8.06254 1.87518 7.58023 1.55291 7.04941 1.33304C6.5186 1.11317 5.94968 1 5.37513 1C4.80058 1 4.23165 1.11317 3.70084 1.33304C3.17002 1.55291 2.68771 1.87518 2.28144 2.28144C1.46095 3.10194 1 4.21477 1 5.37513C1 6.53548 1.46095 7.64831 2.28144 8.46881C3.10194 9.2893 4.21477 9.75025 5.37513 9.75025C6.53548 9.75025 7.64831 9.2893 8.46881 8.46881Z" stroke="#2D2D2D" stroke-width="1.5" stroke-linecap="round" stroke-linejoin="round"/>
</svg>
