<svg width="14" height="15" viewBox="0 0 14 15" fill="none" xmlns="http://www.w3.org/2000/svg">
<path d="M13.0003 13.5003L9.96277 10.4628M9.96277 10.4628C10.4503 9.97524 10.837 9.39645 11.1009 8.75946C11.3647 8.12247 11.5005 7.43974 11.5005 6.75027C11.5005 6.06079 11.3647 5.37807 11.1009 4.74108C10.837 4.10409 10.4503 3.5253 9.96277 3.03777C9.47524 2.55024 8.89645 2.1635 8.25946 1.89965C7.62247 1.6358 6.93974 1.5 6.25027 1.5C5.56079 1.5 4.87807 1.6358 4.24108 1.89965C3.60409 2.1635 3.0253 2.55024 2.53777 3.03777C1.55315 4.02238 1 5.35781 1 6.75027C1 8.14273 1.55315 9.47815 2.53777 10.4628C3.52238 11.4474 4.85781 12.0005 6.25027 12.0005C7.64273 12.0005 8.97815 11.4474 9.96277 10.4628Z" stroke="white" stroke-width="2" stroke-linecap="round" stroke-linejoin="round"/>
</svg>
