<?xml version="1.0" encoding="utf-8" ?>
<svg xmlns="http://www.w3.org/2000/svg" xmlns:xlink="http://www.w3.org/1999/xlink" width="800" height="169">
	<path fill="#465DCB" d="M568.914 41.1766C572.965 41.012 577.423 41.7248 581.233 43.0989C582.84 43.6786 586.021 45.0204 586.758 46.5944C586.907 47.009 587.004 47.4417 587.02 47.8831C587.098 50.0371 583.229 65.6937 581.862 67.1142C581.308 66.6091 580.7 66.2241 580.052 65.8539C574.493 62.6808 567.863 61.5335 561.623 63.2609C546.903 67.336 548.649 84.0053 548.673 95.9678L548.741 118.611C548.745 120.577 549.271 125.115 548.362 126.717C542.492 125.77 532.826 126.545 526.606 126.593L525.776 126.672C525.672 126.574 525.405 126.38 525.347 126.266C524.732 125.055 525.483 72.6297 525.272 66.9163C525.198 64.9098 525.154 60.7528 523.593 59.3353C522.018 57.9053 519.151 58.2909 517.189 58.3661C517.864 55.5333 518.23 45.5589 517.186 43.0136C522.619 42.1643 528.386 41.4198 533.863 42.1467C538.326 42.7389 542.515 44.3232 545.32 48.0446C546.594 49.7336 547.828 52.0144 547.529 54.1858C548.832 52.7051 549.605 50.8101 550.849 49.2863C555.466 43.6341 561.901 41.8566 568.914 41.1766Z"/>
	<path fill="#465DCB" d="M673.576 0.975717C680.485 0.693701 687.77 0.605765 694.671 1.02756C696.841 3.76361 693.869 86.1735 695.556 99.0867C695.924 101.905 696.394 105.213 698.816 107.033C702.144 109.535 707.006 108.776 710.828 108.203C711.754 109.792 711.879 123.737 711.92 126.367C711.306 126.977 710.315 126.86 709.463 126.942C709.37 126.99 709.292 127.031 709.19 127.055C701.796 128.801 690.129 128.423 683.498 124.456C677.877 121.093 674.864 115.451 673.331 109.252Q672.153 104.434 671.947 99.4777C671.581 90.2485 671.553 2.37795 672.246 1.23089L673.576 0.975717Z"/>
	<path fill="#465DCB" d="M638.902 0L646.645 0L647.541 0.655918C652.537 0.941275 659.339 1.79244 663.869 3.98967C664.72 5.50353 662.681 18.6761 662.295 21.3163C662.186 21.4331 661.975 21.7226 661.847 21.7968C661.512 21.9918 659.136 21.225 658.724 21.1109C654.107 19.8291 648.987 18.5901 644.223 19.8773C630.474 23.5929 637.601 38.4406 634.471 43.7817C634.453 43.8116 634.435 43.8409 634.417 43.8705L659.706 43.6955C659.917 44.018 660.095 44.3579 660.215 44.7248C660.741 46.3241 660.588 60.0177 659.91 61.3599L634.575 61.348C634.673 61.4929 634.767 61.6471 634.832 61.8103C635.435 63.3382 635.231 126.081 635.007 126.604C627.029 126.43 619.023 126.551 611.042 126.556C611.202 126.29 611.336 126.018 611.429 125.722C612.475 122.353 612.175 69.4309 611.857 62.8782C611.831 62.3281 611.639 61.8147 611.388 61.3284Q603.897 61.3789 596.405 61.3364C596.485 61.1991 596.553 61.0598 596.609 60.9106C597.541 58.4275 597.711 46.195 596.639 43.8861C601.652 43.4975 606.877 43.7673 611.915 43.7446C613.937 40.451 609.62 22.0338 618.602 10.3995C623.458 4.11011 631.272 1.3876 638.903 0.421103L638.902 0ZM638.902 0L638.903 0.421103C641.664 0.468392 644.832 0.228322 647.541 0.655918L646.645 0L638.902 0Z"/>
	<path fill="#465DCB" fill-opacity="0.19607843" d="M638.902 0L646.645 0L647.541 0.655918C644.832 0.228322 641.664 0.468392 638.903 0.421103L638.902 0Z"/>
	<path fill="#465DCB" d="M171.652 41.5311C173.657 42.0569 176.514 41.6776 178.616 41.6596C185.609 41.5997 192.461 42.5418 198.863 45.5082C204.825 48.2711 210.17 52.6993 212.467 59.0219C213.351 61.4556 214.517 65.9406 213.376 68.371C209.671 68.2912 193.708 69.3121 191.552 67.6337C190.276 66.6407 189.814 63.7455 188.211 62.4C185.936 60.4905 181.559 59.5425 178.6 59.7997C174.792 60.1307 171.166 61.1259 168.674 64.1681C167.353 65.7795 166.932 67.4425 167.15 69.5194C167.788 75.5908 180.444 75.8524 184.953 76.4235C188.263 76.8428 191.54 77.3137 194.801 78.0313C200.056 79.188 205.461 81.0448 209.66 84.5208C213.766 87.9199 215.821 92.3879 216.297 97.6481C216.918 104.515 215.348 112.153 210.827 117.525C204.058 125.568 193.668 127.829 183.688 128.683C183.609 128.693 183.53 128.705 183.451 128.712C173.247 129.604 159.788 127.746 151.703 121.106C145.312 115.857 143.301 108.863 142.519 100.936C147.24 100.631 160.622 99.9827 164.686 100.989C166.568 101.455 166.718 104.056 167.607 105.536C169.152 108.111 171.409 109.761 174.331 110.456C178.537 111.456 184.444 110.98 188.154 108.676C190.43 107.262 192.196 104.959 192.784 102.325C193.102 100.904 192.919 99.4653 192.117 98.2344C188.73 93.0398 172.946 92.5439 166.94 91.2208C159.935 89.6775 151.397 86.8614 147.331 80.4607C143.881 75.0313 143.74 67.8962 145.111 61.7901C147.401 51.587 155.353 46.0867 164.942 43.3737C166.91 42.8171 169.896 42.6623 171.586 41.5751C171.608 41.5607 171.63 41.5458 171.652 41.5311Z"/>
	<path fill="#465DCB" d="M283.81 43.8252C291.812 43.4665 299.904 44.178 307.884 43.5307C308.15 43.9431 308.374 44.4084 308.48 44.8894C309.095 47.6616 308.877 76.2929 308.523 80.4344C308.468 81.0781 308.258 81.6201 307.905 82.1582C307.918 82.1822 307.932 82.2057 307.944 82.2302C307.965 82.2708 307.982 82.3128 308.003 82.3533C310.507 87.303 306.906 102.275 308.888 108.223C309.895 111.244 312.418 110.526 314.665 111.752C315.425 112.167 315.739 112.782 315.954 113.588C316.412 115.305 316.556 125.447 315.826 126.67C310.411 128.291 302.879 128.769 297.37 127.663C292.741 126.734 288.664 124.327 287.164 119.588C286.801 118.44 286.686 116.933 285.992 115.953C285.962 115.911 285.931 115.87 285.901 115.829C285.792 116.154 285.654 116.449 285.48 116.745C282.337 122.079 277.09 125.034 271.212 126.537C262.841 128.677 252.24 128.356 244.662 123.834C230.007 115.088 231.188 95.2151 231.215 80.3996L231.246 56.5426C231.249 52.6419 231.827 47.6628 230.87 43.9071C237.737 42.9589 247.387 43.6978 254.552 43.7485C256.662 47.0026 253.818 88.955 255.741 98.1338C256.088 99.7881 256.816 101.334 257.724 102.752C259.546 105.599 262.169 107.532 265.494 108.241C269.408 109.075 273.986 108.335 277.33 106.11C281.452 103.368 283.049 99.6952 283.968 94.9679C285.679 86.1703 284.743 72.9397 284.737 63.7214C284.733 57.9035 285.235 51.6082 284.571 45.8551C284.485 45.11 284.229 44.4448 283.81 43.8252Z"/>
	<path fill="#465DCB" d="M756.769 102.533C757.326 101.862 757.763 101.19 758.05 100.361C760.144 94.3282 761.616 87.8827 763.47 81.7477C766.107 73.0215 769.121 64.476 772.05 55.8505C773.21 52.4365 774.291 47.3035 776.594 44.521C779.092 42.7238 795.271 43.6842 799.328 43.6911C799.991 45.0598 800.227 46.0586 799.718 47.5278Q799.63 47.7853 799.527 48.0372C799.514 48.2137 799.495 48.395 799.441 48.5645C797.161 55.7652 794.186 62.8959 791.493 69.9552L775.855 110.332C770.92 122.989 765.295 140.894 758.752 152.123C755.447 157.794 751.317 162.976 745.331 165.928C735.71 170.671 725.601 167.845 716.019 164.598C717.175 161.697 719.249 150.346 718.489 147.674C722.505 148.606 726.422 150.881 730.677 150.081C734.359 149.388 737.313 146.524 739.359 143.533C741.444 140.485 746.443 130.285 745.744 126.591C746 125.771 745.615 124.847 745.323 124.077C742.803 117.435 739.572 110.923 736.703 104.414C728.853 86.6068 720.532 68.8406 713.242 50.8063C712.555 49.1062 710.989 45.6971 711.743 43.921C719.535 43.2255 727.74 43.6957 735.575 43.7196C735.593 43.7363 735.612 43.7523 735.629 43.7697C735.657 43.7985 735.683 43.8291 735.711 43.8582C736.134 44.2973 736.492 44.7333 736.76 45.2851C739.515 50.95 758.096 98.7078 756.769 102.533Z"/>
	<path fill="#465DCB" d="M463.787 41.9566C473.288 40.6708 484.676 42.6269 492.624 48.151C499.501 52.9308 503.841 60.2595 505.304 68.4456C506.183 73.3664 506.796 86.3723 503.997 90.3832C485.984 91.0693 467.784 90.2271 449.735 90.4706C452.521 93.4601 450.937 98.924 456.823 103.579C465.018 110.062 479.103 109.636 488.685 107.296C492.148 106.45 495.695 104.678 499.222 104.291C500.243 104.179 500.529 104.173 501.331 104.811C501.641 105.816 501.49 106.42 501.195 107.393C501.367 107.602 501.504 107.833 501.621 108.076C502.722 110.361 504.195 119.096 503.398 121.396C499.395 124.712 486.076 127.468 480.617 128.12C467.276 129.715 452.941 127.876 442.126 119.349C433.258 112.357 428.359 102.182 427.079 91.0888C425.67 78.8731 428.083 65.628 435.858 55.8511C442.308 47.74 453.719 43.1235 463.787 41.9566ZM465.241 60.6915C459.271 62.2724 455.895 64.2704 452.728 69.7352C451.881 71.1959 451.132 73.36 449.886 74.4859L469.824 74.4797C474.773 74.4949 479.903 74.7668 484.82 74.235C485.501 72.6235 484.918 69.8401 484.274 68.2592C483.057 65.2736 479.954 63.1808 477.054 61.9931C473.299 60.4552 469.237 60.1445 465.241 60.6915Z"/>
	<path fill="#465DCB" d="M353.825 55.3829L353.89 55.3268C355.723 53.7211 356.99 51.2141 358.691 49.3816C364.489 43.1368 373.166 40.9633 381.474 41.4608C390.333 41.9913 398.311 45.7573 404.208 52.4079C413.04 62.3675 415.789 76.0098 414.993 88.9678C414.322 99.8917 409.609 111.233 401.281 118.554Q400.607 119.154 399.903 119.72Q399.2 120.286 398.469 120.816Q397.739 121.347 396.983 121.84Q396.227 122.334 395.447 122.789Q394.668 123.245 393.867 123.661Q393.065 124.078 392.245 124.454Q391.424 124.83 390.585 125.165Q389.747 125.501 388.893 125.794Q388.039 126.087 387.171 126.338Q386.304 126.588 385.425 126.796Q384.546 127.003 383.658 127.167Q382.77 127.331 381.875 127.45Q380.98 127.57 380.08 127.645Q379.18 127.72 378.278 127.75Q377.375 127.781 376.472 127.766Q375.569 127.752 374.668 127.693C368.787 127.31 363.707 125.146 358.191 123.367C359.101 126.228 359.048 166.795 358.184 168.499C358.095 168.674 357.995 168.839 357.883 169L334.618 169C335.716 165.304 334.967 140.587 334.968 135.286C334.971 113.155 335.563 90.864 334.942 68.7521C334.889 66.8658 335.057 63.5032 334.163 61.8219C333.635 60.8288 332.469 60.1926 331.424 59.9028C330.051 59.5224 328.508 59.4613 327.091 59.334L327.131 59.2049C328.122 55.9557 326.247 44.4514 328.634 43.1661C332.356 41.1618 340.549 41.829 344.534 43.0386C347.777 44.0226 350.958 46.0736 352.589 49.1197C353.443 50.7158 354.292 53.5976 353.825 55.3829ZM371.665 63.0331C366.864 64.4582 363.002 66.9356 360.567 71.4379C356.733 78.5249 358.122 88.416 358.156 96.1927C358.164 98.2102 358.328 100.727 357.627 102.62C357.61 102.666 357.595 102.713 357.577 102.758C357.547 102.838 357.51 102.914 357.475 102.991C362.492 104.995 370.183 108.893 375.695 106.664C375.753 106.641 375.812 106.604 375.865 106.575C380.287 106.008 384.105 103.363 386.797 99.8828C390.886 94.5966 391.944 87.2022 391.091 80.7136C390.366 75.1985 388.064 69.3512 383.515 65.8895C380.163 63.3381 376.058 62.4279 371.906 62.998Q371.785 63.0147 371.665 63.0331Z"/>
	<path fill="#465DCB" d="M0 26.2492C1.87357 20.9024 4.21143 16.2901 9.55201 13.7134C11.7691 12.6436 14.6728 12.3746 17.1087 12.2287C29.2427 11.5021 41.7881 12.118 53.955 12.1149C62.5427 12.1127 105.251 11.1335 110.878 13.1523C114.384 14.4101 118.586 17.6746 120.191 21.0808C121.234 23.2971 121.709 25.8261 121.898 28.2542C122.713 38.7603 121.993 50.7678 121.988 61.447C121.982 72.0858 122.703 84.7967 121.77 95.2014Q121.384 99.6621 120.423 104.035Q119.462 108.408 117.941 112.62C111.482 130.195 98.8157 144.352 81.7509 152.207C71.771 156.801 56.442 160.538 45.7236 156.556C40.1581 154.488 35.8399 150.161 33.4028 144.791C30.7201 138.88 30.3245 132.154 32.6327 126.066C34.8346 120.257 39.8153 114.362 44.7938 110.653C45.6032 112.793 46.3971 116.294 48.0839 117.835C48.9066 118.057 49.2738 118.226 50.0635 117.78C50.7241 117.407 51.3449 116.634 51.8676 116.081C52.655 106.982 50.8793 102.61 58.6646 96.0699C61.6292 93.5793 64.5088 90.6579 67.5666 88.3374C71.0202 94.1001 73.9767 100.194 77.0854 106.151C78.5318 108.922 79.8582 111.963 81.7089 114.484C82.4651 115.514 82.9466 116.065 84.1508 116.463C85.5174 116.269 86.4148 115.496 87.2312 114.417C87.9074 113.524 88.3932 112.6 88.8 111.56C87.9655 107.689 87.2132 103.769 86.242 99.9312C87.7985 98.0297 90.3118 95.9494 90.2189 93.3113C89.8452 92.5813 89.7277 92.2869 88.8928 92.0268C87.7212 91.6619 85.9849 92.0322 84.8015 92.2622C84.0086 90.7268 83.9157 88.8211 83.685 87.1277C84.8763 85.6841 86.6445 84.0226 86.4264 82.005C86.3701 81.4837 86.001 80.9171 85.5921 80.5803C84.1981 79.4319 81.1128 79.3052 80.8521 77.1732C80.6966 75.9021 81.6235 74.4043 82.3945 73.4637C85.9433 69.1345 94.0499 63.5424 93.4342 57.0994C93.2744 55.4261 92.348 54.0479 91.0602 53.012C89.7997 51.9979 88.3563 51.5038 86.7341 51.6957C79.6459 52.5339 72.3025 66.635 67.1987 63.8184C66.3254 62.5392 66.1156 59.0389 64.5759 58.7235C63.5949 58.5224 62.4945 58.9912 61.7009 59.5441C60.702 60.24 59.7746 61.0927 58.8614 61.8973C57.2858 61.5275 55.6615 61.2152 54.1539 60.6182C54.3152 58.9737 54.7109 57.0533 54.0926 55.4806C53.6105 54.958 53.4415 54.7902 52.6835 54.7557C51.5324 54.7032 50.3916 55.5705 49.6003 56.3122C48.7354 57.1227 47.9442 58.0307 47.1574 58.9165C43.5726 58.1628 36.482 55.5602 33.3133 57.5799C32.1341 58.3315 31.2737 59.7457 30.7111 60.9946C31.1077 62.7837 32.7412 63.8582 34.2312 64.811C41.0458 69.1684 50.6824 74.6745 57.8615 78.2923C54.2346 83.3821 47.8791 92.6439 41.5781 93.7154C38.1247 94.3026 34.5788 94.1004 31.1066 94.5882C30.2824 95.4178 29.2526 96.2362 29.1043 97.46C29.3985 98.4907 29.6352 99.0841 30.6355 99.625C32.5018 100.634 34.6899 101.145 36.6181 102.056C30.8331 108.169 23.369 118.632 14.2739 118.921C10.7558 119.033 7.49502 117.794 4.94452 115.37C2.45951 113.008 1.3533 110.399 0 107.331L0 26.2492Z"/>
</svg>
