<svg width="66" height="74" viewBox="0 0 66 74" fill="none" xmlns="http://www.w3.org/2000/svg">
<path d="M8.27587 17.125C8.3821 14.2832 9.31165 12.0921 11.0645 10.5517C12.8174 9.01133 15.1944 8.24113 18.1955 8.24113C20.1874 8.24113 21.8871 8.5864 23.2947 9.27692C24.7289 9.96744 25.8045 10.9103 26.5216 12.1054C27.2652 13.3005 27.6371 14.6417 27.6371 16.129C27.6371 17.8819 27.1988 19.3161 26.3224 20.4315C25.446 21.5204 24.4235 22.2641 23.2549 22.6624V22.8218C24.7687 23.3264 25.9639 24.163 26.8403 25.3316C27.7167 26.5001 28.155 28.0007 28.155 29.8332C28.155 31.4799 27.7699 32.9406 26.9997 34.2154C26.256 35.4637 25.1538 36.4463 23.6931 37.1634C22.259 37.8805 20.5459 38.239 18.554 38.239C15.367 38.239 12.8174 37.4555 10.9052 35.8886C9.01951 34.3216 8.02356 31.9579 7.91733 28.7975H14.5304C14.557 29.966 14.889 30.8956 15.5264 31.5861C16.1638 32.2501 17.0933 32.5821 18.315 32.5821C19.3508 32.5821 20.1475 32.2899 20.7053 31.7056C21.2896 31.0948 21.5817 30.298 21.5817 29.3154C21.5817 28.0405 21.1701 27.1243 20.3467 26.5665C19.55 25.9823 18.2619 25.6901 16.4825 25.6901H15.2077V20.1526H16.4825C17.837 20.1526 18.9259 19.9269 19.7492 19.4754C20.599 18.9974 21.024 18.1608 21.024 16.9656C21.024 16.0095 20.7584 15.2659 20.2272 14.7347C19.6961 14.2035 18.9657 13.9379 18.0361 13.9379C17.0269 13.9379 16.27 14.2434 15.7654 14.8542C15.2873 15.4651 15.0085 16.222 14.9288 17.125H8.27587ZM32.1574 23.0608C32.1574 18.4927 33.0338 14.8941 34.7867 12.2648C36.5661 9.63546 39.4212 8.32081 43.3518 8.32081C47.2825 8.32081 50.1243 9.63546 51.8771 12.2648C53.6566 14.8941 54.5463 18.4927 54.5463 23.0608C54.5463 27.682 53.6566 31.3072 51.8771 33.9365C50.1243 36.5658 47.2825 37.8805 43.3518 37.8805C39.4212 37.8805 36.5661 36.5658 34.7867 33.9365C33.0338 31.3072 32.1574 27.682 32.1574 23.0608ZM47.8535 23.0608C47.8535 20.3784 47.5614 18.3201 46.9771 16.8859C46.3928 15.4252 45.1844 14.6949 43.3518 14.6949C41.5193 14.6949 40.3109 15.4252 39.7266 16.8859C39.1423 18.3201 38.8502 20.3784 38.8502 23.0608C38.8502 24.8668 38.9564 26.3674 39.1689 27.5625C39.3813 28.7311 39.8063 29.6872 40.4437 30.4308C41.1076 31.1479 42.077 31.5064 43.3518 31.5064C44.6267 31.5064 45.5828 31.1479 46.2202 30.4308C46.8841 29.6872 47.3223 28.7311 47.5348 27.5625C47.7473 26.3674 47.8535 24.8668 47.8535 23.0608Z" fill="#3F4ED6"/>
<path d="M0.616 61.9431C0.616 60.6671 0.872667 59.5524 1.386 58.5991C1.914 57.6457 2.64 56.9124 3.564 56.3991C4.50267 55.8857 5.57333 55.6291 6.776 55.6291C8.316 55.6291 9.59933 56.0324 10.626 56.8391C11.6673 57.6457 12.3493 58.7824 12.672 60.2491H8.668C8.33067 59.3104 7.678 58.8411 6.71 58.8411C6.02067 58.8411 5.47067 59.1124 5.06 59.6551C4.64933 60.1831 4.444 60.9457 4.444 61.9431C4.444 62.9404 4.64933 63.7104 5.06 64.2531C5.47067 64.7811 6.02067 65.0451 6.71 65.0451C7.678 65.0451 8.33067 64.5757 8.668 63.6371H12.672C12.3493 65.0744 11.6673 66.2037 10.626 67.0251C9.58467 67.8464 8.30133 68.2571 6.776 68.2571C5.57333 68.2571 4.50267 68.0004 3.564 67.4871C2.64 66.9737 1.914 66.2404 1.386 65.2871C0.872667 64.3337 0.616 63.2191 0.616 61.9431ZM26.2563 61.7451C26.2563 62.0971 26.2343 62.4637 26.1903 62.8451H17.6763C17.735 63.6077 17.977 64.1944 18.4023 64.6051C18.8423 65.0011 19.3776 65.1991 20.0083 65.1991C20.947 65.1991 21.5996 64.8031 21.9663 64.0111H25.9703C25.765 64.8177 25.391 65.5437 24.8483 66.1891C24.3203 66.8344 23.653 67.3404 22.8463 67.7071C22.0396 68.0737 21.1376 68.2571 20.1403 68.2571C18.9376 68.2571 17.867 68.0004 16.9283 67.4871C15.9896 66.9737 15.2563 66.2404 14.7283 65.2871C14.2003 64.3337 13.9363 63.2191 13.9363 61.9431C13.9363 60.6671 14.193 59.5524 14.7063 58.5991C15.2343 57.6457 15.9676 56.9124 16.9063 56.3991C17.845 55.8857 18.923 55.6291 20.1403 55.6291C21.3283 55.6291 22.3843 55.8784 23.3083 56.3771C24.2323 56.8757 24.951 57.5871 25.4643 58.5111C25.9923 59.4351 26.2563 60.5131 26.2563 61.7451ZM22.4063 60.7551C22.4063 60.1097 22.1863 59.5964 21.7463 59.2151C21.3063 58.8337 20.7563 58.6431 20.0963 58.6431C19.4656 58.6431 18.9303 58.8264 18.4903 59.1931C18.065 59.5597 17.801 60.0804 17.6983 60.7551H22.4063ZM32.003 57.8511C32.443 57.1764 32.993 56.6484 33.653 56.2671C34.313 55.8711 35.0463 55.6731 35.853 55.6731V59.6551H34.819C33.8803 59.6551 33.1763 59.8604 32.707 60.2711C32.2376 60.6671 32.003 61.3711 32.003 62.3831V68.0811H28.241V55.8051H32.003V57.8511ZM49.2231 61.7451C49.2231 62.0971 49.2011 62.4637 49.1571 62.8451H40.6431C40.7018 63.6077 40.9438 64.1944 41.3691 64.6051C41.8091 65.0011 42.3444 65.1991 42.9751 65.1991C43.9138 65.1991 44.5664 64.8031 44.9331 64.0111H48.9371C48.7318 64.8177 48.3578 65.5437 47.8151 66.1891C47.2871 66.8344 46.6198 67.3404 45.8131 67.7071C45.0064 68.0737 44.1044 68.2571 43.1071 68.2571C41.9044 68.2571 40.8338 68.0004 39.8951 67.4871C38.9564 66.9737 38.2231 66.2404 37.6951 65.2871C37.1671 64.3337 36.9031 63.2191 36.9031 61.9431C36.9031 60.6671 37.1598 59.5524 37.6731 58.5991C38.2011 57.6457 38.9344 56.9124 39.8731 56.3991C40.8118 55.8857 41.8898 55.6291 43.1071 55.6291C44.2951 55.6291 45.3511 55.8784 46.2751 56.3771C47.1991 56.8757 47.9178 57.5871 48.4311 58.5111C48.9591 59.4351 49.2231 60.5131 49.2231 61.7451ZM45.3731 60.7551C45.3731 60.1097 45.1531 59.5964 44.7131 59.2151C44.2731 58.8337 43.7231 58.6431 43.0631 58.6431C42.4324 58.6431 41.8971 58.8264 41.4571 59.1931C41.0318 59.5597 40.7678 60.0804 40.6651 60.7551H45.3731ZM54.9698 57.8511C55.4098 57.1764 55.9598 56.6484 56.6198 56.2671C57.2798 55.8711 58.0131 55.6731 58.8198 55.6731V59.6551H57.7858C56.8471 59.6551 56.1431 59.8604 55.6738 60.2711C55.2044 60.6671 54.9698 61.3711 54.9698 62.3831V68.0811H51.2078V55.8051H54.9698V57.8511ZM62.5099 54.5291C61.8499 54.5291 61.3072 54.3384 60.8819 53.9571C60.4712 53.5611 60.2659 53.0771 60.2659 52.5051C60.2659 51.9184 60.4712 51.4344 60.8819 51.0531C61.3072 50.6571 61.8499 50.4591 62.5099 50.4591C63.1552 50.4591 63.6832 50.6571 64.0939 51.0531C64.5192 51.4344 64.7319 51.9184 64.7319 52.5051C64.7319 53.0771 64.5192 53.5611 64.0939 53.9571C63.6832 54.3384 63.1552 54.5291 62.5099 54.5291ZM64.3799 55.8051V68.0811H60.6179V55.8051H64.3799Z" fill="#ACB4FF"/>
</svg>
