<svg width="64" height="64" viewBox="0 0 64 64" fill="none" xmlns="http://www.w3.org/2000/svg">
<circle cx="32" cy="32" r="31.0357" stroke="#3F4ED6" stroke-width="1.92857"/>
<path d="M47.9985 32.3911C47.9985 22.6311 40.4251 16 31.9985 16C23.6607 16 15.9985 22.4889 15.9985 32.4978C14.9318 33.1022 14.2207 34.24 14.2207 35.5556V39.1111C14.2207 41.0667 15.8207 42.6667 17.7763 42.6667C18.754 42.6667 19.554 41.8667 19.554 40.8889V32.3378C19.554 25.5289 24.7985 19.5733 31.6074 19.3778C33.2738 19.3271 34.9334 19.6114 36.4879 20.2139C38.0424 20.8164 39.4601 21.7249 40.6571 22.8854C41.854 24.0458 42.8059 25.4348 43.4562 26.9699C44.1065 28.505 44.442 30.1551 44.4429 31.8222V44.4444H31.9985C31.0207 44.4444 30.2207 45.2444 30.2207 46.2222C30.2207 47.2 31.0207 48 31.9985 48H44.4429C46.3985 48 47.9985 46.4 47.9985 44.4444V42.2756C49.0474 41.7244 49.7763 40.64 49.7763 39.36V35.2711C49.7763 34.0267 49.0474 32.9422 47.9985 32.3911Z" fill="#3F4ED6"/>
<path d="M26.6664 35.5556C27.6483 35.5556 28.4442 34.7596 28.4442 33.7778C28.4442 32.7959 27.6483 32 26.6664 32C25.6846 32 24.8887 32.7959 24.8887 33.7778C24.8887 34.7596 25.6846 35.5556 26.6664 35.5556Z" fill="#3F4ED6"/>
<path d="M37.3325 35.5556C38.3143 35.5556 39.1102 34.7596 39.1102 33.7778C39.1102 32.7959 38.3143 32 37.3325 32C36.3506 32 35.5547 32.7959 35.5547 33.7778C35.5547 34.7596 36.3506 35.5556 37.3325 35.5556Z" fill="#3F4ED6"/>
<path d="M42.6655 30.2762C42.2416 27.7769 40.9471 25.5081 39.0112 23.8716C37.0753 22.235 34.6228 21.3361 32.0877 21.334C26.7011 21.334 20.9055 25.7962 21.3677 32.8007C23.56 31.9036 25.4962 30.478 27.0037 28.6509C28.5112 26.8239 29.5433 24.6522 30.0077 22.3295C32.3366 27.0051 37.1189 30.2229 42.6655 30.2762Z" fill="#3F4ED6"/>
</svg>
