<svg width="64" height="64" viewBox="0 0 64 64" fill="none" xmlns="http://www.w3.org/2000/svg">
<path d="M37.3322 17.7783C41.1042 17.7783 44.7217 19.2767 47.3889 21.9439C50.0561 24.6111 51.5545 28.2286 51.5545 32.0005C51.5545 35.7725 50.0561 39.39 47.3889 42.0572C44.7217 44.7244 41.1042 46.2228 37.3322 46.2228C33.5603 46.2228 29.9428 44.7244 27.2756 42.0572C24.6084 39.39 23.11 35.7725 23.11 32.0005C23.11 28.2286 24.6084 24.6111 27.2756 21.9439C29.9428 19.2767 33.5603 17.7783 37.3322 17.7783ZM37.3322 21.3339C34.5033 21.3339 31.7902 22.4577 29.7898 24.4581C27.7894 26.4585 26.6656 29.1716 26.6656 32.0005C26.6656 34.8295 27.7894 37.5426 29.7898 39.543C31.7902 41.5434 34.5033 42.6672 37.3322 42.6672C40.1612 42.6672 42.8743 41.5434 44.8747 39.543C46.8751 37.5426 47.9989 34.8295 47.9989 32.0005C47.9989 29.1716 46.8751 26.4585 44.8747 24.4581C42.8743 22.4577 40.1612 21.3339 37.3322 21.3339ZM35.5545 24.8894H38.2211V31.6094L42.3634 35.7517L40.4789 37.6361L35.5545 32.7117V24.8894ZM14.2211 42.6672C13.7496 42.6672 13.2975 42.4799 12.9641 42.1465C12.6307 41.8131 12.4434 41.3609 12.4434 40.8894C12.4434 40.4179 12.6307 39.9657 12.9641 39.6324C13.2975 39.299 13.7496 39.1117 14.2211 39.1117H21.03C21.5811 40.3739 22.2922 41.565 23.11 42.6672H14.2211ZM15.9989 33.7783C15.5274 33.7783 15.0752 33.591 14.7418 33.2576C14.4084 32.9242 14.2211 32.472 14.2211 32.0005C14.2211 31.529 14.4084 31.0769 14.7418 30.7435C15.0752 30.4101 15.5274 30.2228 15.9989 30.2228H19.6434L19.5545 32.0005L19.6434 33.7783H15.9989ZM17.7767 24.8894C17.3052 24.8894 16.853 24.7021 16.5196 24.3687C16.1862 24.0353 15.9989 23.5831 15.9989 23.1117C15.9989 22.6402 16.1862 22.188 16.5196 21.8546C16.853 21.5212 17.3052 21.3339 17.7767 21.3339H23.11C22.2922 22.4361 21.5811 23.6272 21.03 24.8894H17.7767Z" fill="#3F4ED6"/>
<circle cx="32" cy="32" r="31.0357" stroke="#3F4ED6" stroke-width="1.92857"/>
</svg>
