<svg width="64" height="64" viewBox="0 0 64 64" fill="none" xmlns="http://www.w3.org/2000/svg">
<circle cx="32" cy="32" r="31.0357" stroke="#3F4ED6" stroke-width="1.92857"/>
<path fill-rule="evenodd" clip-rule="evenodd" d="M39.2395 19.2744L42.442 22.4769C47.1478 27.1844 49.4998 29.5364 49.4998 32.4589C49.4998 35.3832 47.1478 37.7352 42.442 42.4409C37.7345 47.1484 35.3825 49.5004 32.4583 49.5004C29.5358 49.5004 27.182 47.1484 22.4763 42.4427L19.2738 39.2402C16.57 36.5347 15.2173 35.1837 14.715 33.4284C14.211 31.6732 14.6415 29.8094 15.5025 26.0837L15.9978 23.9347C16.7205 20.7987 17.0828 19.2307 18.1555 18.1562C19.23 17.0834 20.798 16.7212 23.934 15.9984L26.083 15.5014C29.8105 14.6422 31.6725 14.2117 33.4278 14.7139C35.183 15.2179 36.5358 16.5707 39.2395 19.2744ZM30.5053 36.0744C29.3275 34.8984 29.3363 33.2079 30.0415 31.8692C29.8669 31.617 29.7862 31.3116 29.8133 31.0061C29.8404 30.7006 29.9736 30.4142 30.1899 30.1967C30.4062 29.9792 30.6918 29.8443 30.9971 29.8154C31.3025 29.7865 31.6083 29.8655 31.8615 30.0387C32.4565 29.7237 33.1093 29.5557 33.7603 29.5627C34.1084 29.5659 34.4409 29.7073 34.6848 29.9558C34.9286 30.2042 35.0638 30.5393 35.0605 30.8874C35.0573 31.2355 34.9159 31.5681 34.6674 31.8119C34.419 32.0558 34.0839 32.1909 33.7358 32.1877C33.3306 32.2027 32.9476 32.3768 32.67 32.6724C31.9928 33.3497 32.1695 34.0287 32.3603 34.2194C32.5528 34.4102 33.23 34.5869 33.9073 33.9097C35.2793 32.5377 37.6488 32.0827 39.166 33.5999C40.3438 34.7777 40.335 36.4682 39.6298 37.8069C39.8033 38.0592 39.8831 38.3641 39.8555 38.669C39.8279 38.9739 39.6946 39.2596 39.4787 39.4766C39.2627 39.6936 38.9777 39.8282 38.6729 39.8573C38.3682 39.8864 38.0628 39.808 37.8098 39.6357C37.0244 40.0664 36.1135 40.21 35.2338 40.0417C34.8926 39.9716 34.5933 39.7689 34.4016 39.4781C34.21 39.1873 34.1417 38.8323 34.2118 38.4912C34.2818 38.15 34.4846 37.8507 34.7754 37.6591C35.0661 37.4674 35.4211 37.3991 35.7623 37.4692C36.072 37.5339 36.5725 37.4324 37.0013 37.0037C37.6785 36.3247 37.5018 35.6474 37.311 35.4567C37.1185 35.2659 36.4413 35.0892 35.764 35.7664C34.392 37.1384 32.0225 37.5934 30.5053 36.0744ZM28.5348 29.0132C28.8597 28.6881 29.1175 28.3022 29.2933 27.8775C29.4691 27.4529 29.5596 26.9977 29.5595 26.5381C29.5594 26.0784 29.4688 25.6233 29.2928 25.1987C29.1168 24.7741 28.859 24.3883 28.5339 24.0633C28.2088 23.7383 27.8229 23.4806 27.3982 23.3048C26.9736 23.129 26.5184 23.0385 26.0588 23.0386C25.5991 23.0387 25.144 23.1293 24.7194 23.3053C24.2948 23.4812 23.909 23.7391 23.584 24.0642C22.9277 24.7207 22.5591 25.611 22.5593 26.5393C22.5595 27.4676 22.9284 28.3578 23.5849 29.0141C24.2414 29.6703 25.1317 30.0389 26.06 30.0388C26.9883 30.0386 27.8785 29.6697 28.5348 29.0132Z" fill="#3F4ED6"/>
</svg>
