<svg width="16" height="16" viewBox="0 0 16 16" fill="none" xmlns="http://www.w3.org/2000/svg">
<g clip-path="url(#clip0_8_45)">
<path d="M5.40663 4.70666C5.21936 4.51916 5.11418 4.26499 5.11418 3.99999C5.11418 3.73499 5.21936 3.48082 5.40663 3.29332L7.2453 1.45466C7.34435 1.35558 7.46195 1.27699 7.59138 1.22337C7.72081 1.16975 7.85953 1.14215 7.99963 1.14215C8.13973 1.14215 8.27845 1.16975 8.40788 1.22337C8.53731 1.27699 8.65491 1.35558 8.75396 1.45466L10.5926 3.29266C10.6855 3.3855 10.7592 3.49573 10.8095 3.61706C10.8598 3.73838 10.8857 3.86842 10.8857 3.99975C10.8857 4.13109 10.8599 4.26114 10.8097 4.38249C10.7594 4.50384 10.6858 4.6141 10.593 4.70699C10.5001 4.79988 10.3899 4.87357 10.2686 4.92386C10.1472 4.97414 10.0172 5.00004 9.88586 5.00007C9.75453 5.00011 9.62448 4.97427 9.50313 4.92404C9.38178 4.87381 9.27152 4.80017 9.17863 4.70732L8.99996 4.52866V6.99999H11.4713L11.2926 6.82132C11.1051 6.63373 10.9998 6.37933 10.9999 6.11409C10.9999 5.84885 11.1054 5.5945 11.293 5.40699C11.4806 5.21948 11.735 5.11418 12.0002 5.11424C12.2654 5.1143 12.5198 5.21973 12.7073 5.40732L14.5453 7.24599C14.7452 7.44601 14.8575 7.71721 14.8575 7.99999C14.8575 8.28277 14.7452 8.55397 14.5453 8.75399L12.7073 10.5927C12.5198 10.7803 12.2654 10.8857 12.0002 10.8857C11.735 10.8858 11.4806 10.7805 11.293 10.593C11.1054 10.4055 10.9999 10.1511 10.9999 9.88589C10.9998 9.62065 11.1051 9.36625 11.2926 9.17866L11.4713 8.99999H8.99996V11.4713L9.17863 11.2927C9.36623 11.1051 9.62063 10.9998 9.88586 10.9999C10.1511 11 10.4055 11.1054 10.593 11.293C10.7805 11.4806 10.8858 11.735 10.8857 12.0002C10.8857 12.2655 10.7802 12.5198 10.5926 12.7073L8.75396 14.5453C8.65491 14.6444 8.53731 14.723 8.40788 14.7766C8.27845 14.8302 8.13973 14.8578 7.99963 14.8578C7.85953 14.8578 7.72081 14.8302 7.59138 14.7766C7.46195 14.723 7.34435 14.6444 7.2453 14.5453L5.4073 12.7073C5.2197 12.5198 5.11427 12.2655 5.11421 12.0002C5.11415 11.735 5.21945 11.4806 5.40696 11.293C5.59447 11.1054 5.84882 11 6.11406 10.9999C6.3793 10.9998 6.6337 11.1051 6.8213 11.2927L6.99996 11.4713V8.99999H4.52863L4.7073 9.17866C4.8948 9.36625 5.00011 9.62065 5.00005 9.88589C4.99998 10.1511 4.89456 10.4055 4.70696 10.593C4.51937 10.7805 4.26497 10.8858 3.99973 10.8857C3.73449 10.8857 3.48014 10.7803 3.29263 10.5927L1.45463 8.75399C1.25474 8.55397 1.14246 8.28277 1.14246 7.99999C1.14246 7.71721 1.25474 7.44601 1.45463 7.24599L3.29263 5.40666C3.48014 5.21906 3.73449 5.11363 3.99973 5.11357C4.13106 5.11354 4.26111 5.13938 4.38246 5.18961C4.50381 5.23984 4.61407 5.31348 4.70696 5.40632C4.79985 5.49917 4.87354 5.6094 4.92383 5.73072C4.97412 5.85205 5.00002 5.98209 5.00005 6.11342C5.00008 6.24475 4.97424 6.37481 4.92401 6.49615C4.87378 6.6175 4.80014 6.72777 4.7073 6.82066L4.52863 6.99932H6.99996V4.52866L6.8213 4.70732C6.63377 4.89479 6.37946 5.00011 6.1143 5.00011C5.84913 5.00011 5.59482 4.89479 5.4073 4.70732L5.40663 4.70666Z" fill="#0B156F"/>
</g>
<defs>
<clipPath id="clip0_8_45">
<rect width="16" height="16" fill="white"/>
</clipPath>
</defs>
</svg>
