<svg width="32" height="32" viewBox="0 0 32 32" fill="none" xmlns="http://www.w3.org/2000/svg">
<path d="M16.96 14.4C16.32 14.24 15.68 13.92 15.2 13.44C14.72 13.28 14.56 12.8 14.56 12.48C14.56 12.16 14.72 11.68 15.04 11.52C15.52 11.2 16 10.88 16.48 11.04C17.44 11.04 18.24 11.52 18.72 12.16L20.16 10.24C19.68 9.76 19.2 9.44 18.72 9.12C18.24 8.8 17.6 8.64 16.96 8.64V6.4H15.04V8.64C14.24 8.8 13.44 9.28 12.8 9.92C12.16 10.72 11.68 11.68 11.84 12.64C11.84 13.6 12.16 14.56 12.8 15.2C13.6 16 14.72 16.48 15.68 16.96C16.16 17.12 16.8 17.44 17.28 17.76C17.6 18.08 17.76 18.56 17.76 19.04C17.76 19.52 17.6 20 17.28 20.48C16.8 20.96 16.16 21.12 15.68 21.12C15.04 21.12 14.24 20.96 13.76 20.48C13.28 20.16 12.8 19.68 12.48 19.2L10.88 20.96C11.36 21.6 11.84 22.08 12.48 22.56C13.28 23.04 14.24 23.52 15.2 23.52V25.6H16.96V23.2C17.92 23.04 18.72 22.56 19.36 21.92C20.16 21.12 20.64 19.84 20.64 18.72C20.64 17.76 20.32 16.64 19.52 16C18.72 15.2 17.92 14.72 16.96 14.4ZM16 3.2C8.95995 3.2 3.19995 8.96 3.19995 16C3.19995 23.04 8.95995 28.8 16 28.8C23.04 28.8 28.8 23.04 28.8 16C28.8 8.96 23.04 3.2 16 3.2ZM16 27.04C9.91995 27.04 4.95995 22.08 4.95995 16C4.95995 9.92 9.91995 4.96 16 4.96C22.08 4.96 27.04 9.92 27.04 16C27.04 22.08 22.08 27.04 16 27.04Z" fill="#C0C0C0"/>
</svg>
