<svg width="16" height="16" viewBox="0 0 16 16" fill="none" xmlns="http://www.w3.org/2000/svg">
<path d="M8.24005 2.66669C4.38671 2.66669 1.76271 6.57135 3.21605 10.14L3.83805 11.6654C3.86521 11.7319 3.87015 11.8054 3.85213 11.875C3.83411 11.9445 3.79409 12.0064 3.73805 12.0514L2.42271 13.1067C2.36886 13.1499 2.32976 13.2087 2.31079 13.2751C2.29183 13.3415 2.29395 13.4121 2.31685 13.4773C2.33976 13.5424 2.38232 13.5988 2.43866 13.6387C2.495 13.6786 2.56234 13.7 2.63138 13.7H7.84471C8.60924 13.7001 9.36629 13.5496 10.0726 13.2571C10.779 12.9646 11.4208 12.5358 11.9614 11.9952C12.5021 11.4547 12.9309 10.8129 13.2235 10.1066C13.5161 9.40025 13.6667 8.64321 13.6667 7.87869C13.6667 5.00002 11.3334 2.66669 8.45471 2.66669H8.24005Z" fill="#0B156F"/>
</svg>
