<svg width="16" height="16" viewBox="0 0 16 16" fill="none" xmlns="http://www.w3.org/2000/svg">
<path d="M5.33337 8.00002C6.04062 8.00002 6.71889 7.71907 7.21899 7.21897C7.71909 6.71887 8.00004 6.0406 8.00004 5.33335C8.00004 4.62611 7.71909 3.94783 7.21899 3.44774C6.71889 2.94764 6.04062 2.66669 5.33337 2.66669C4.62613 2.66669 3.94785 2.94764 3.44776 3.44774C2.94766 3.94783 2.66671 4.62611 2.66671 5.33335C2.66671 6.0406 2.94766 6.71887 3.44776 7.21897C3.94785 7.71907 4.62613 8.00002 5.33337 8.00002ZM11.3334 8.00002C11.8638 8.00002 12.3725 7.78931 12.7476 7.41423C13.1227 7.03916 13.3334 6.53045 13.3334 6.00002C13.3334 5.46959 13.1227 4.96088 12.7476 4.58581C12.3725 4.21073 11.8638 4.00002 11.3334 4.00002C10.8029 4.00002 10.2942 4.21073 9.91916 4.58581C9.54409 4.96088 9.33337 5.46959 9.33337 6.00002C9.33337 6.53045 9.54409 7.03916 9.91916 7.41423C10.2942 7.78931 10.8029 8.00002 11.3334 8.00002ZM2.83337 9.33335C2.43555 9.33335 2.05402 9.49139 1.77271 9.77269C1.49141 10.054 1.33337 10.4355 1.33337 10.8334V11C1.33337 11 1.33337 14 5.33337 14C9.33337 14 9.33337 11 9.33337 11V10.8334C9.33337 10.4355 9.17534 10.054 8.89403 9.77269C8.61273 9.49139 8.2312 9.33335 7.83337 9.33335H2.83337ZM11.3334 13C10.5527 13 9.95471 12.8794 9.49671 12.6947C9.76331 12.2448 9.9306 11.7432 9.98737 11.2234C9.99386 11.1602 9.99808 11.0968 10 11.0334V10.8334C10.0009 10.2748 9.78537 9.73771 9.39871 9.33469L9.46671 9.33335H13.2C13.589 9.33335 13.9621 9.48788 14.2371 9.76293C14.5122 10.038 14.6667 10.411 14.6667 10.8C14.6667 10.8 14.6667 13 11.3334 13Z" fill="#0B156F"/>
</svg>
