<svg width="32" height="32" viewBox="0 0 32 32" fill="none" xmlns="http://www.w3.org/2000/svg">
<path d="M13.3333 5.33333C16.2666 5.33333 18.6666 7.73333 18.6666 10.6667C18.6666 13.6 16.2666 16 13.3333 16C10.4 16 7.99996 13.6 7.99996 10.6667C7.99996 7.73333 10.4 5.33333 13.3333 5.33333ZM22.6666 28L25.0666 30.36C25.7333 31.0267 26.6666 30.4933 26.6666 29.7067V24L30.4 19.4667C30.5485 19.2686 30.639 19.033 30.6612 18.7864C30.6835 18.5398 30.6366 18.2919 30.5259 18.0704C30.4151 17.8489 30.2449 17.6626 30.0343 17.5325C29.8236 17.4023 29.5809 17.3333 29.3333 17.3333H20C18.9333 17.3333 18.2666 18.6667 18.9333 19.4667L22.6666 24V28ZM20 24.9333L16.9333 21.2C16.4 20.5333 16.1333 19.7333 16.1333 18.9333C15.2 18.6667 14.2666 18.6667 13.3333 18.6667C7.46663 18.6667 2.66663 21.0667 2.66663 24V26.6667H20V24.9333Z" fill="#C0C0C0"/>
</svg>
