<svg width="46" height="77" viewBox="0 0 46 77" fill="none" xmlns="http://www.w3.org/2000/svg">
    <path d="M39.154 29.7612H6.24543C5.28459 29.7612 4.50392 30.5459 4.50392 31.5118V69.4226C4.50392 70.3885 5.28459 71.1732 6.24543 71.1732H39.154C40.1149 71.1732 40.8956 70.3885 40.8956 69.4226V31.5118C40.8956 30.5459 40.1149 29.7612 39.154 29.7612ZM27.4439 37.3675C27.0235 37.79 26.423 38.0315 25.8225 38.0315H21.3786C20.0574 38.0315 19.0366 37.0052 19.0366 35.6772C19.0366 35.0131 19.2768 34.4698 19.6971 34.0472C20.1175 33.6247 20.718 33.3832 21.3786 33.3832H25.8225C27.0835 33.3832 28.1645 34.4095 28.1645 35.7375C28.1044 36.3412 27.8642 36.8845 27.4439 37.3675ZM39.154 29.7612H6.24543C5.28459 29.7612 4.50392 30.5459 4.50392 31.5118V69.4226C4.50392 70.3885 5.28459 71.1732 6.24543 71.1732H39.154C40.1149 71.1732 40.8956 70.3885 40.8956 69.4226V31.5118C40.8956 30.5459 40.1149 29.7612 39.154 29.7612ZM27.4439 37.3675C27.0235 37.79 26.423 38.0315 25.8225 38.0315H21.3786C20.0574 38.0315 19.0366 37.0052 19.0366 35.6772C19.0366 35.0131 19.2768 34.4698 19.6971 34.0472C20.1175 33.6247 20.718 33.3832 21.3786 33.3832H25.8225C27.0835 33.3832 28.1645 34.4095 28.1645 35.7375C28.1044 36.3412 27.8642 36.8845 27.4439 37.3675ZM40.7755 20.8268H34.2898V6.51969C34.2898 2.89764 31.4073 0 27.8042 0H18.1958C14.5927 0 11.7102 2.89764 11.7102 6.51969V20.8268H5.22454C2.34204 20.8268 0 23.1811 0 26.0184V71.4751C0 74.3123 2.34204 76.6667 5.22454 76.6667H40.7755C43.658 76.6667 46 74.3123 46 71.4751V26.0184C46 23.1811 43.658 20.8268 40.7755 20.8268ZM14.2924 6.51969C14.2924 5.07087 15.0731 3.80315 16.2741 3.13911C17.5352 3.74278 20.2976 4.16535 23.5405 4.16535C26.2428 4.16535 28.6449 3.86352 30.0862 3.44094C31.047 4.16535 31.6475 5.31234 31.6475 6.58005V20.8268H14.2324V6.51969H14.2924ZM42.577 69.3622C42.577 71.294 41.0157 72.8031 39.094 72.8031H6.24543C4.32376 72.8031 2.7624 71.2336 2.7624 69.3622V31.5118C2.7624 29.5801 4.32376 28.0709 6.24543 28.0709H39.154C41.0757 28.0709 42.6371 29.6404 42.6371 31.5118V69.3622H42.577ZM39.154 29.7612H6.24543C5.28459 29.7612 4.50392 30.5459 4.50392 31.5118V69.4226C4.50392 70.3885 5.28459 71.1732 6.24543 71.1732H39.154C40.1149 71.1732 40.8956 70.3885 40.8956 69.4226V31.5118C40.8956 30.5459 40.1149 29.7612 39.154 29.7612ZM27.4439 37.3675C27.0235 37.79 26.423 38.0315 25.8225 38.0315H21.3786C20.0574 38.0315 19.0366 37.0052 19.0366 35.6772C19.0366 35.0131 19.2768 34.4698 19.6971 34.0472C20.1175 33.6247 20.718 33.3832 21.3786 33.3832H25.8225C27.0835 33.3832 28.1645 34.4095 28.1645 35.7375C28.1044 36.3412 27.8642 36.8845 27.4439 37.3675Z" fill="#3F4ED6"/>
    <path d="M8.432 59.134V57.586H11.324V66.334H9.596V59.134H8.432ZM12.9837 61.846C12.9837 60.462 13.2317 59.378 13.7277 58.594C14.2317 57.81 15.0637 57.418 16.2237 57.418C17.3837 57.418 18.2117 57.81 18.7077 58.594C19.2117 59.378 19.4637 60.462 19.4637 61.846C19.4637 63.238 19.2117 64.33 18.7077 65.122C18.2117 65.914 17.3837 66.31 16.2237 66.31C15.0637 66.31 14.2317 65.914 13.7277 65.122C13.2317 64.33 12.9837 63.238 12.9837 61.846ZM17.8077 61.846C17.8077 61.254 17.7677 60.758 17.6877 60.358C17.6157 59.95 17.4637 59.618 17.2317 59.362C17.0077 59.106 16.6717 58.978 16.2237 58.978C15.7757 58.978 15.4357 59.106 15.2037 59.362C14.9797 59.618 14.8277 59.95 14.7477 60.358C14.6757 60.758 14.6397 61.254 14.6397 61.846C14.6397 62.454 14.6757 62.966 14.7477 63.382C14.8197 63.79 14.9717 64.122 15.2037 64.378C15.4357 64.626 15.7757 64.75 16.2237 64.75C16.6717 64.75 17.0117 64.626 17.2437 64.378C17.4757 64.122 17.6277 63.79 17.6997 63.382C17.7717 62.966 17.8077 62.454 17.8077 61.846ZM25.6615 66.334L22.6135 62.602V66.334H20.9335V57.958H22.6135V61.714L25.6615 57.958H27.6895L24.2335 62.11L27.7855 66.334H25.6615ZM34.7225 60.478C34.5305 60.126 34.2665 59.858 33.9305 59.674C33.5945 59.49 33.2025 59.398 32.7545 59.398C32.2585 59.398 31.8185 59.51 31.4345 59.734C31.0505 59.958 30.7505 60.278 30.5345 60.694C30.3185 61.11 30.2105 61.59 30.2105 62.134C30.2105 62.694 30.3185 63.182 30.5345 63.598C30.7585 64.014 31.0665 64.334 31.4585 64.558C31.8505 64.782 32.3065 64.894 32.8265 64.894C33.4665 64.894 33.9905 64.726 34.3985 64.39C34.8065 64.046 35.0745 63.57 35.2025 62.962H32.3225V61.678H36.8585V63.142C36.7465 63.726 36.5065 64.266 36.1385 64.762C35.7705 65.258 35.2945 65.658 34.7105 65.962C34.1345 66.258 33.4865 66.406 32.7665 66.406C31.9585 66.406 31.2265 66.226 30.5705 65.866C29.9225 65.498 29.4105 64.99 29.0345 64.342C28.6665 63.694 28.4825 62.958 28.4825 62.134C28.4825 61.31 28.6665 60.574 29.0345 59.926C29.4105 59.27 29.9225 58.762 30.5705 58.402C31.2265 58.034 31.9545 57.85 32.7545 57.85C33.6985 57.85 34.5185 58.082 35.2145 58.546C35.9105 59.002 36.3905 59.646 36.6545 60.478H34.7225Z" fill="white"/>
</svg>
