<svg width="54" height="90" viewBox="0 0 54 90" fill="none" xmlns="http://www.w3.org/2000/svg">
    <path d="M45.9634 34.937H7.33159C6.20365 34.937 5.28721 35.8583 5.28721 36.9921V81.4961C5.28721 82.6299 6.20365 83.5512 7.33159 83.5512H45.9634C47.0914 83.5512 48.0078 82.6299 48.0078 81.4961V36.9921C48.0078 35.8583 47.0914 34.937 45.9634 34.937ZM32.2167 43.8661C31.7232 44.3622 31.0183 44.6457 30.3133 44.6457H25.0966C23.5457 44.6457 22.3473 43.4409 22.3473 41.8819C22.3473 41.1024 22.6292 40.4646 23.1227 39.9685C23.6162 39.4724 24.3211 39.189 25.0966 39.189H30.3133C31.7937 39.189 33.0627 40.3937 33.0627 41.9528C32.9922 42.6614 32.7102 43.2992 32.2167 43.8661ZM45.9634 34.937H7.33159C6.20365 34.937 5.28721 35.8583 5.28721 36.9921V81.4961C5.28721 82.6299 6.20365 83.5512 7.33159 83.5512H45.9634C47.0914 83.5512 48.0078 82.6299 48.0078 81.4961V36.9921C48.0078 35.8583 47.0914 34.937 45.9634 34.937ZM32.2167 43.8661C31.7232 44.3622 31.0183 44.6457 30.3133 44.6457H25.0966C23.5457 44.6457 22.3473 43.4409 22.3473 41.8819C22.3473 41.1024 22.6292 40.4646 23.1227 39.9685C23.6162 39.4724 24.3211 39.189 25.0966 39.189H30.3133C31.7937 39.189 33.0627 40.3937 33.0627 41.9528C32.9922 42.6614 32.7102 43.2992 32.2167 43.8661ZM47.8668 24.4488H40.2533V7.65354C40.2533 3.40158 36.8694 0 32.6397 0H21.3603C17.1305 0 13.7467 3.40158 13.7467 7.65354V24.4488H6.13316C2.74935 24.4488 0 27.2126 0 30.5433V83.9055C0 87.2362 2.74935 90 6.13316 90H47.8668C51.2506 90 54 87.2362 54 83.9055V30.5433C54 27.2126 51.2506 24.4488 47.8668 24.4488ZM16.7781 7.65354C16.7781 5.95276 17.6945 4.46457 19.1044 3.68504C20.5849 4.3937 23.8277 4.88976 27.6345 4.88976C30.8068 4.88976 33.6266 4.53543 35.3185 4.03937C36.4465 4.88976 37.1514 6.23622 37.1514 7.72441V24.4488H16.7076V7.65354H16.7781ZM49.9817 81.4252C49.9817 83.6929 48.1488 85.4646 45.8929 85.4646H7.33159C5.07572 85.4646 3.24282 83.622 3.24282 81.4252V36.9921C3.24282 34.7244 5.07572 32.9528 7.33159 32.9528H45.9634C48.2193 32.9528 50.0522 34.7953 50.0522 36.9921V81.4252H49.9817ZM45.9634 34.937H7.33159C6.20365 34.937 5.28721 35.8583 5.28721 36.9921V81.4961C5.28721 82.6299 6.20365 83.5512 7.33159 83.5512H45.9634C47.0914 83.5512 48.0078 82.6299 48.0078 81.4961V36.9921C48.0078 35.8583 47.0914 34.937 45.9634 34.937ZM32.2167 43.8661C31.7232 44.3622 31.0183 44.6457 30.3133 44.6457H25.0966C23.5457 44.6457 22.3473 43.4409 22.3473 41.8819C22.3473 41.1024 22.6292 40.4646 23.1227 39.9685C23.6162 39.4724 24.3211 39.189 25.0966 39.189H30.3133C31.7937 39.189 33.0627 40.3937 33.0627 41.9528C32.9922 42.6614 32.7102 43.2992 32.2167 43.8661Z" fill="#3F4ED6"/>
    <path d="M9.358 65.2001C10.254 64.4534 10.968 63.8328 11.5 63.3381C12.032 62.8341 12.4753 62.3114 12.83 61.7701C13.1847 61.2288 13.362 60.6968 13.362 60.1741C13.362 59.6981 13.25 59.3248 13.026 59.0541C12.802 58.7834 12.4567 58.6481 11.99 58.6481C11.5233 58.6481 11.164 58.8068 10.912 59.1241C10.66 59.4321 10.5293 59.8568 10.52 60.3981H8.616C8.65333 59.2781 8.98467 58.4288 9.61 57.8501C10.2447 57.2714 11.0473 56.9821 12.018 56.9821C13.082 56.9821 13.8987 57.2668 14.468 57.8361C15.0373 58.3961 15.322 59.1381 15.322 60.0621C15.322 60.7901 15.126 61.4854 14.734 62.1481C14.342 62.8108 13.894 63.3894 13.39 63.8841C12.886 64.3694 12.228 64.9574 11.416 65.6481H15.546V67.2721H8.63V65.8161L9.358 65.2001ZM16.7811 62.1761C16.7811 60.5614 17.0704 59.2968 17.6491 58.3821C18.2371 57.4674 19.2077 57.0101 20.5611 57.0101C21.9144 57.0101 22.8804 57.4674 23.4591 58.3821C24.0471 59.2968 24.3411 60.5614 24.3411 62.1761C24.3411 63.8001 24.0471 65.0741 23.4591 65.9981C22.8804 66.9221 21.9144 67.3841 20.5611 67.3841C19.2077 67.3841 18.2371 66.9221 17.6491 65.9981C17.0704 65.0741 16.7811 63.8001 16.7811 62.1761ZM22.4091 62.1761C22.4091 61.4854 22.3624 60.9068 22.2691 60.4401C22.1851 59.9641 22.0077 59.5768 21.7371 59.2781C21.4757 58.9794 21.0837 58.8301 20.5611 58.8301C20.0384 58.8301 19.6417 58.9794 19.3711 59.2781C19.1097 59.5768 18.9324 59.9641 18.8391 60.4401C18.7551 60.9068 18.7131 61.4854 18.7131 62.1761C18.7131 62.8854 18.7551 63.4828 18.8391 63.9681C18.9231 64.4441 19.1004 64.8314 19.3711 65.1301C19.6417 65.4194 20.0384 65.5641 20.5611 65.5641C21.0837 65.5641 21.4804 65.4194 21.7511 65.1301C22.0217 64.8314 22.1991 64.4441 22.2831 63.9681C22.3671 63.4828 22.4091 62.8854 22.4091 62.1761ZM31.5718 67.4121L28.0158 63.0581V67.4121H26.0558V57.6401H28.0158V62.0221L31.5718 57.6401H33.9378L29.9058 62.4841L34.0498 67.4121H31.5718ZM42.143 60.5801C41.919 60.1694 41.611 59.8568 41.219 59.6421C40.827 59.4274 40.3697 59.3201 39.847 59.3201C39.2684 59.3201 38.755 59.4508 38.307 59.7121C37.859 59.9734 37.509 60.3468 37.257 60.8321C37.005 61.3174 36.879 61.8774 36.879 62.5121C36.879 63.1654 37.005 63.7348 37.257 64.2201C37.5184 64.7054 37.8777 65.0788 38.335 65.3401C38.7924 65.6014 39.3244 65.7321 39.931 65.7321C40.6777 65.7321 41.289 65.5361 41.765 65.1441C42.241 64.7428 42.5537 64.1874 42.703 63.4781H39.343V61.9801H44.635V63.6881C44.5044 64.3694 44.2244 64.9994 43.795 65.5781C43.3657 66.1568 42.8104 66.6234 42.129 66.9781C41.457 67.3234 40.701 67.4961 39.861 67.4961C38.9184 67.4961 38.0644 67.2861 37.299 66.8661C36.543 66.4368 35.9457 65.8441 35.507 65.0881C35.0777 64.3321 34.863 63.4734 34.863 62.5121C34.863 61.5508 35.0777 60.6921 35.507 59.9361C35.9457 59.1708 36.543 58.5781 37.299 58.1581C38.0644 57.7288 38.9137 57.5141 39.847 57.5141C40.9484 57.5141 41.905 57.7848 42.717 58.3261C43.529 58.8581 44.089 59.6094 44.397 60.5801H42.143Z" fill="white"/>
</svg>
