<svg width="95" height="88" viewBox="0 0 95 88" fill="none" xmlns="http://www.w3.org/2000/svg">
    <path d="M91.0397 13.0619H72.2219V6.26972C72.2219 2.8363 69.3955 0 65.8997 0H29.3053C25.8095 0 22.9831 2.76166 22.9831 6.26972V13.0619H4.16522C1.85947 13.0619 0 14.9279 0 17.2417V78.7447C0 81.0585 1.85947 82.9245 4.16522 82.9245H7.95854V83.8202C7.95854 86.134 9.81801 88 12.1238 88H20.8261C23.1318 88 24.9913 86.134 24.9913 83.8202V82.9245H69.9905V83.8202C69.9905 86.134 71.85 88 74.1557 88H82.8581C85.1638 88 87.0233 86.134 87.0233 83.8202V82.9245H90.8166C93.1223 82.9245 94.9818 81.0585 94.9818 78.7447V17.2417C95.2049 14.9279 93.3455 13.0619 91.0397 13.0619ZM17.1815 73.6692H14.3551V22.2426H17.1815V73.6692ZM33.0986 73.6692H30.2722V22.2426H33.0986V73.6692ZM49.0157 73.6692H46.1893V22.2426H49.0157V73.6692ZM64.9328 73.6692H62.1064V22.2426H64.9328V73.6692ZM67.9823 13.0619H27.2227V6.26972C27.2227 5.15013 28.1896 4.17981 29.3053 4.17981H34.4374C34.5118 5.6726 35.7019 6.86684 37.2638 6.86684H57.9411C59.4287 6.86684 60.6932 5.6726 60.7675 4.17981H65.8997C67.0897 4.17981 67.9823 5.07549 67.9823 6.26972V13.0619ZM80.8498 73.6692H78.0234V22.2426H80.8498V73.6692Z" fill="#3F4ED6"/>
    <rect x="20" y="41" width="55" height="27" rx="4" fill="#3F4ED6"/>
    <path d="M23.99 51.334C24.05 50.134 24.47 49.21 25.25 48.562C26.042 47.902 27.08 47.572 28.364 47.572C29.24 47.572 29.99 47.728 30.614 48.04C31.238 48.34 31.706 48.754 32.018 49.282C32.342 49.798 32.504 50.386 32.504 51.046C32.504 51.802 32.306 52.444 31.91 52.972C31.526 53.488 31.064 53.836 30.524 54.016V54.088C31.22 54.304 31.76 54.688 32.144 55.24C32.54 55.792 32.738 56.5 32.738 57.364C32.738 58.084 32.57 58.726 32.234 59.29C31.91 59.854 31.424 60.298 30.776 60.622C30.14 60.934 29.372 61.09 28.472 61.09C27.116 61.09 26.012 60.748 25.16 60.064C24.308 59.38 23.858 58.372 23.81 57.04H26.258C26.282 57.628 26.48 58.102 26.852 58.462C27.236 58.81 27.758 58.984 28.418 58.984C29.03 58.984 29.498 58.816 29.822 58.48C30.158 58.132 30.326 57.688 30.326 57.148C30.326 56.428 30.098 55.912 29.642 55.6C29.186 55.288 28.478 55.132 27.518 55.132H26.996V53.062H27.518C29.222 53.062 30.074 52.492 30.074 51.352C30.074 50.836 29.918 50.434 29.606 50.146C29.306 49.858 28.868 49.714 28.292 49.714C27.728 49.714 27.29 49.87 26.978 50.182C26.678 50.482 26.504 50.866 26.456 51.334H23.99ZM34.7294 54.268C34.7294 52.192 35.1014 50.566 35.8454 49.39C36.6014 48.214 37.8494 47.626 39.5894 47.626C41.3294 47.626 42.5714 48.214 43.3154 49.39C44.0714 50.566 44.4494 52.192 44.4494 54.268C44.4494 56.356 44.0714 57.994 43.3154 59.182C42.5714 60.37 41.3294 60.964 39.5894 60.964C37.8494 60.964 36.6014 60.37 35.8454 59.182C35.1014 57.994 34.7294 56.356 34.7294 54.268ZM41.9654 54.268C41.9654 53.38 41.9054 52.636 41.7854 52.036C41.6774 51.424 41.4494 50.926 41.1014 50.542C40.7654 50.158 40.2614 49.966 39.5894 49.966C38.9174 49.966 38.4074 50.158 38.0594 50.542C37.7234 50.926 37.4954 51.424 37.3754 52.036C37.2674 52.636 37.2134 53.38 37.2134 54.268C37.2134 55.18 37.2674 55.948 37.3754 56.572C37.4834 57.184 37.7114 57.682 38.0594 58.066C38.4074 58.438 38.9174 58.624 39.5894 58.624C40.2614 58.624 40.7714 58.438 41.1194 58.066C41.4674 57.682 41.6954 57.184 41.8034 56.572C41.9114 55.948 41.9654 55.18 41.9654 54.268ZM53.7461 61L49.1741 55.402V61H46.6541V48.436H49.1741V54.07L53.7461 48.436H56.7881L51.6041 54.664L56.9321 61H53.7461ZM67.3377 52.216C67.0497 51.688 66.6537 51.286 66.1497 51.01C65.6457 50.734 65.0577 50.596 64.3857 50.596C63.6417 50.596 62.9817 50.764 62.4057 51.1C61.8297 51.436 61.3797 51.916 61.0557 52.54C60.7317 53.164 60.5697 53.884 60.5697 54.7C60.5697 55.54 60.7317 56.272 61.0557 56.896C61.3917 57.52 61.8537 58 62.4417 58.336C63.0297 58.672 63.7137 58.84 64.4937 58.84C65.4537 58.84 66.2397 58.588 66.8517 58.084C67.4637 57.568 67.8657 56.854 68.0577 55.942H63.7377V54.016H70.5417V56.212C70.3737 57.088 70.0137 57.898 69.4617 58.642C68.9097 59.386 68.1957 59.986 67.3197 60.442C66.4557 60.886 65.4837 61.108 64.4037 61.108C63.1917 61.108 62.0937 60.838 61.1097 60.298C60.1377 59.746 59.3697 58.984 58.8057 58.012C58.2537 57.04 57.9777 55.936 57.9777 54.7C57.9777 53.464 58.2537 52.36 58.8057 51.388C59.3697 50.404 60.1377 49.642 61.1097 49.102C62.0937 48.55 63.1857 48.274 64.3857 48.274C65.8017 48.274 67.0317 48.622 68.0757 49.318C69.1197 50.002 69.8397 50.968 70.2357 52.216H67.3377Z" fill="white"/>
</svg>
