<svg width="54" height="69" viewBox="0 0 54 69" fill="none" xmlns="http://www.w3.org/2000/svg">
    <path d="M37.0029 43.6223V44.7926H39.3783V43.6223H37.0029ZM37.0029 43.6223V44.7926H39.3783V43.6223H37.0029ZM51.4135 46.2819V31.3351C51.4135 24.633 48.6686 18.4628 44.2346 14.0479C42.176 11.9734 39.695 10.2713 36.9501 8.99468C37.0029 8.78191 37.0029 8.46277 37.0029 8.14362C37.0029 4.04787 32.5161 0.75 27.0264 0.75C21.5367 0.75 17.0499 4.10106 17.0499 8.14362C17.0499 8.40957 17.0499 8.67553 17.1026 8.94149C8.49854 12.7181 2.42815 21.3883 2.42815 31.3351V46.3351C0.950147 47.2394 0 48.8883 0 50.75V61.9202C0 64.7925 6.28153 65.4309 6.28153 64.4734V35.8564C6.28153 24.8989 15.2023 16.016 26.129 16.016H26.9736C37.9003 16.016 46.8211 24.8989 46.8211 35.8564V64.4734C46.8211 65.4309 54 64.7925 54 61.9202V50.75C53.9472 48.8351 52.8915 47.1862 51.4135 46.2819ZM34.7331 8.14362C32.2522 7.34574 29.6657 6.86702 26.9208 6.86702C24.2815 6.86702 21.7478 7.29255 19.3724 8.09043C19.4252 5.32447 22.9091 3.03723 27.0792 3.03723C31.1965 3.03723 34.7331 5.37766 34.7331 8.14362ZM26.9208 17.5585H26.0762C15.9941 17.5585 7.75953 25.75 7.75953 35.8564V62.9309C7.75953 65.8564 10.1349 68.25 13.0909 68.25H39.8534C42.8094 68.25 45.1848 65.8564 45.1848 62.9309V35.8564C45.2375 25.75 37.0557 17.5585 26.9208 17.5585ZM40.1701 45.5904H36.2111V38.6755H40.1701V45.5904ZM41.5953 37.0798C41.5953 37.5585 41.2258 37.9309 40.7507 37.9309H13.3548C12.8798 37.9309 12.4575 37.5585 12.4575 37.0798C12.4575 36.6011 12.8798 36.2287 13.3548 36.2287H40.7507C41.2258 36.2287 41.5953 36.6011 41.5953 37.0798ZM39.3255 43.6223H37.0029V44.7926H39.3783V43.6223H39.3255Z" fill="#3F4ED6"/>
    <path d="M14.45 56.596C13.5167 56.1107 13.05 55.3593 13.05 54.342C13.05 53.838 13.176 53.3807 13.428 52.97C13.6893 52.55 14.0767 52.2187 14.59 51.976C15.1127 51.724 15.7473 51.598 16.494 51.598C17.2407 51.598 17.8707 51.724 18.384 51.976C18.9067 52.2187 19.294 52.55 19.546 52.97C19.8073 53.3807 19.938 53.838 19.938 54.342C19.938 54.8553 19.812 55.308 19.56 55.7C19.308 56.0827 18.972 56.3813 18.552 56.596C19.0653 56.82 19.4667 57.1467 19.756 57.576C20.0453 58.0053 20.19 58.514 20.19 59.102C20.19 59.7367 20.0267 60.292 19.7 60.768C19.3827 61.2347 18.944 61.594 18.384 61.846C17.824 62.098 17.194 62.224 16.494 62.224C15.794 62.224 15.164 62.098 14.604 61.846C14.0533 61.594 13.6147 61.2347 13.288 60.768C12.9707 60.292 12.812 59.7367 12.812 59.102C12.812 58.514 12.9567 58.0053 13.246 57.576C13.5353 57.1373 13.9367 56.8107 14.45 56.596ZM18.034 54.622C18.034 54.1647 17.894 53.81 17.614 53.558C17.3433 53.306 16.97 53.18 16.494 53.18C16.0273 53.18 15.654 53.306 15.374 53.558C15.1033 53.81 14.968 54.1693 14.968 54.636C14.968 55.056 15.108 55.392 15.388 55.644C15.6773 55.896 16.046 56.022 16.494 56.022C16.942 56.022 17.3107 55.896 17.6 55.644C17.8893 55.3827 18.034 55.042 18.034 54.622ZM16.494 57.45C15.962 57.45 15.528 57.5853 15.192 57.856C14.8653 58.1267 14.702 58.514 14.702 59.018C14.702 59.4847 14.8607 59.8673 15.178 60.166C15.5047 60.4553 15.9433 60.6 16.494 60.6C17.0447 60.6 17.4787 60.4507 17.796 60.152C18.1133 59.8533 18.272 59.4753 18.272 59.018C18.272 58.5233 18.1087 58.1407 17.782 57.87C17.4553 57.59 17.026 57.45 16.494 57.45ZM27.4781 62L23.9221 57.646V62H21.9621V52.228H23.9221V56.61L27.4781 52.228H29.8441L25.8121 57.072L29.9561 62H27.4781ZM38.0493 55.168C37.8253 54.7573 37.5173 54.4447 37.1253 54.23C36.7333 54.0153 36.276 53.908 35.7533 53.908C35.1746 53.908 34.6613 54.0387 34.2133 54.3C33.7653 54.5613 33.4153 54.9347 33.1633 55.42C32.9113 55.9053 32.7853 56.4653 32.7853 57.1C32.7853 57.7533 32.9113 58.3227 33.1633 58.808C33.4246 59.2933 33.784 59.6667 34.2413 59.928C34.6986 60.1893 35.2306 60.32 35.8373 60.32C36.584 60.32 37.1953 60.124 37.6713 59.732C38.1473 59.3307 38.46 58.7753 38.6093 58.066H35.2493V56.568H40.5413V58.276C40.4106 58.9573 40.1306 59.5873 39.7013 60.166C39.272 60.7447 38.7166 61.2113 38.0353 61.566C37.3633 61.9113 36.6073 62.084 35.7673 62.084C34.8246 62.084 33.9706 61.874 33.2053 61.454C32.4493 61.0247 31.852 60.432 31.4133 59.676C30.984 58.92 30.7693 58.0613 30.7693 57.1C30.7693 56.1387 30.984 55.28 31.4133 54.524C31.852 53.7587 32.4493 53.166 33.2053 52.746C33.9706 52.3167 34.82 52.102 35.7533 52.102C36.8546 52.102 37.8113 52.3727 38.6233 52.914C39.4353 53.446 39.9953 54.1973 40.3033 55.168H38.0493Z" fill="white"/>
</svg>
