<svg version="1.2" xmlns="http://www.w3.org/2000/svg" viewBox="0 0 46 77" width="46" height="77">
	<title>10kg-svg</title>
	<style>
		.s0 { fill: #3f4ed6 } 
	</style>
	<path id="Layer" fill-rule="evenodd" class="s0" d="m46 26v45.5c0 2.8-2.3 5.2-5.2 5.2h-35.6c-2.9 0-5.2-2.4-5.2-5.2v-45.5c0-2.8 2.3-5.2 5.2-5.2h6.5v-14.3c0-3.6 2.9-6.5 6.5-6.5h9.6c3.6 0 6.5 2.9 6.5 6.5v14.3h6.5c2.9 0 5.2 2.4 5.2 5.2zm-3.4 43.4v-37.9c0-1.9-1.5-3.4-3.4-3.4h-33c-1.9 0-3.4 1.5-3.4 3.4v37.9c0 1.8 1.5 3.4 3.4 3.4h32.9c1.9 0 3.5-1.5 3.5-3.4zm-1.8-37.9v37.9c0 1-0.7 1.8-1.7 1.8h-32.9c-1 0-1.8-0.8-1.8-1.8v-37.9c0-1 0.8-1.7 1.8-1.7h32.9c1 0 1.7 0.7 1.7 1.7zm-26.6-25v14.3h17.4v-14.2c0-1.3-0.6-2.4-1.6-3.2-1.4 0.5-3.8 0.8-6.5 0.8-3.3 0-6-0.5-7.3-1.1-1.2 0.7-2 2-2 3.4zm14 29.2c0-1.3-1.1-2.3-2.4-2.3h-4.4c-0.7 0-1.3 0.2-1.7 0.6q-0.6 0.7-0.7 1.7c0 1.3 1.1 2.3 2.4 2.3h4.4c0.6 0 1.2-0.2 1.6-0.6q0.7-0.8 0.8-1.7z"/>
</svg>